<?xml version="1.0" encoding="UTF-8"?>
<svg xmlns="http://www.w3.org/2000/svg" xmlns:xlink="http://www.w3.org/1999/xlink" width="1000pt" height="1000pt" viewBox="0 0 1000 1000" version="1.1">
<defs>
<clipPath id="clip1">
  <path d="M 61.386719 736.699219 L 236.464844 736.699219 L 236.464844 971.097656 L 61.386719 971.097656 Z M 61.386719 736.699219 "/>
</clipPath>
<clipPath id="clip2">
  <path d="M 62 737 L 236 737 L 236 971.097656 L 62 971.097656 Z M 62 737 "/>
</clipPath>
<clipPath id="clip3">
  <path d="M 304.550781 501.800781 L 479.628906 501.800781 L 479.628906 971.101562 L 304.550781 971.101562 Z M 304.550781 501.800781 "/>
</clipPath>
<clipPath id="clip4">
  <path d="M 305 502 L 479 502 L 479 971.101562 L 305 971.101562 Z M 305 502 "/>
</clipPath>
<clipPath id="clip5">
  <path d="M 547.714844 266.898438 L 722.792969 266.898438 L 722.792969 971.097656 L 547.714844 971.097656 Z M 547.714844 266.898438 "/>
</clipPath>
<clipPath id="clip6">
  <path d="M 548 267 L 722 267 L 722 971.097656 L 548 971.097656 Z M 548 267 "/>
</clipPath>
<clipPath id="clip7">
  <path d="M 790.878906 32 L 965.957031 32 L 965.957031 971.101562 L 790.878906 971.101562 Z M 790.878906 32 "/>
</clipPath>
<clipPath id="clip8">
  <path d="M 791 33 L 965 33 L 965 971.101562 L 791 971.101562 Z M 791 33 "/>
</clipPath>
</defs>
<g id="surface21">
<path style="fill:none;stroke-width:1;stroke-linecap:butt;stroke-linejoin:miter;stroke:rgb(0%,0%,0%);stroke-opacity:0.0980392;stroke-miterlimit:10;" d="M 28 971.5 L 1000 971.5 "/>
<path style="fill:none;stroke-width:1;stroke-linecap:butt;stroke-linejoin:miter;stroke:rgb(0%,0%,0%);stroke-opacity:0.0980392;stroke-miterlimit:10;" d="M 19.34375 971.5 L 27 971.5 "/>
<path style="fill:none;stroke-width:1;stroke-linecap:butt;stroke-linejoin:miter;stroke:rgb(0%,0%,0%);stroke-opacity:0.0980392;stroke-miterlimit:10;" d="M 28 854.5 L 1000 854.5 "/>
<path style="fill:none;stroke-width:1;stroke-linecap:butt;stroke-linejoin:miter;stroke:rgb(0%,0%,0%);stroke-opacity:0.0980392;stroke-miterlimit:10;" d="M 19.34375 854.5 L 27 854.5 "/>
<path style="fill:none;stroke-width:1;stroke-linecap:butt;stroke-linejoin:miter;stroke:rgb(0%,0%,0%);stroke-opacity:0.0980392;stroke-miterlimit:10;" d="M 28 736.5 L 1000 736.5 "/>
<path style="fill:none;stroke-width:1;stroke-linecap:butt;stroke-linejoin:miter;stroke:rgb(0%,0%,0%);stroke-opacity:0.0980392;stroke-miterlimit:10;" d="M 19.34375 736.5 L 27 736.5 "/>
<path style="fill:none;stroke-width:1;stroke-linecap:butt;stroke-linejoin:miter;stroke:rgb(0%,0%,0%);stroke-opacity:0.0980392;stroke-miterlimit:10;" d="M 28 619.5 L 1000 619.5 "/>
<path style="fill:none;stroke-width:1;stroke-linecap:butt;stroke-linejoin:miter;stroke:rgb(0%,0%,0%);stroke-opacity:0.0980392;stroke-miterlimit:10;" d="M 19.34375 619.5 L 27 619.5 "/>
<path style="fill:none;stroke-width:1;stroke-linecap:butt;stroke-linejoin:miter;stroke:rgb(0%,0%,0%);stroke-opacity:0.0980392;stroke-miterlimit:10;" d="M 28 501.5 L 1000 501.5 "/>
<path style="fill:none;stroke-width:1;stroke-linecap:butt;stroke-linejoin:miter;stroke:rgb(0%,0%,0%);stroke-opacity:0.0980392;stroke-miterlimit:10;" d="M 19.34375 501.5 L 27 501.5 "/>
<path style="fill:none;stroke-width:1;stroke-linecap:butt;stroke-linejoin:miter;stroke:rgb(0%,0%,0%);stroke-opacity:0.0980392;stroke-miterlimit:10;" d="M 28 384.5 L 1000 384.5 "/>
<path style="fill:none;stroke-width:1;stroke-linecap:butt;stroke-linejoin:miter;stroke:rgb(0%,0%,0%);stroke-opacity:0.0980392;stroke-miterlimit:10;" d="M 19.34375 384.5 L 27 384.5 "/>
<path style="fill:none;stroke-width:1;stroke-linecap:butt;stroke-linejoin:miter;stroke:rgb(0%,0%,0%);stroke-opacity:0.0980392;stroke-miterlimit:10;" d="M 28 266.5 L 1000 266.5 "/>
<path style="fill:none;stroke-width:1;stroke-linecap:butt;stroke-linejoin:miter;stroke:rgb(0%,0%,0%);stroke-opacity:0.0980392;stroke-miterlimit:10;" d="M 19.34375 266.5 L 27 266.5 "/>
<path style="fill:none;stroke-width:1;stroke-linecap:butt;stroke-linejoin:miter;stroke:rgb(0%,0%,0%);stroke-opacity:0.0980392;stroke-miterlimit:10;" d="M 28 149.5 L 1000 149.5 "/>
<path style="fill:none;stroke-width:1;stroke-linecap:butt;stroke-linejoin:miter;stroke:rgb(0%,0%,0%);stroke-opacity:0.0980392;stroke-miterlimit:10;" d="M 19.34375 149.5 L 27 149.5 "/>
<path style="fill:none;stroke-width:1;stroke-linecap:butt;stroke-linejoin:miter;stroke:rgb(0%,0%,0%);stroke-opacity:0.0980392;stroke-miterlimit:10;" d="M 28 32.5 L 1000 32.5 "/>
<path style="fill:none;stroke-width:1;stroke-linecap:butt;stroke-linejoin:miter;stroke:rgb(0%,0%,0%);stroke-opacity:0.0980392;stroke-miterlimit:10;" d="M 19.34375 32.5 L 27 32.5 "/>
<path style="fill:none;stroke-width:1;stroke-linecap:butt;stroke-linejoin:miter;stroke:rgb(0%,0%,0%);stroke-opacity:0.0980392;stroke-miterlimit:10;" d="M 27.5 32 L 27.5 971 "/>
<path style="fill:none;stroke-width:1;stroke-linecap:butt;stroke-linejoin:miter;stroke:rgb(0%,0%,0%);stroke-opacity:0.0980392;stroke-miterlimit:10;" d="M 27.5 972 L 27.5 979.601562 "/>
<path style="fill:none;stroke-width:1;stroke-linecap:butt;stroke-linejoin:miter;stroke:rgb(0%,0%,0%);stroke-opacity:0.0980392;stroke-miterlimit:10;" d="M 270.5 32 L 270.5 971 "/>
<path style="fill:none;stroke-width:1;stroke-linecap:butt;stroke-linejoin:miter;stroke:rgb(0%,0%,0%);stroke-opacity:0.0980392;stroke-miterlimit:10;" d="M 270.5 972 L 270.5 979.601562 "/>
<path style="fill:none;stroke-width:1;stroke-linecap:butt;stroke-linejoin:miter;stroke:rgb(0%,0%,0%);stroke-opacity:0.0980392;stroke-miterlimit:10;" d="M 513.5 32 L 513.5 971 "/>
<path style="fill:none;stroke-width:1;stroke-linecap:butt;stroke-linejoin:miter;stroke:rgb(0%,0%,0%);stroke-opacity:0.0980392;stroke-miterlimit:10;" d="M 513.5 972 L 513.5 979.601562 "/>
<path style="fill:none;stroke-width:1;stroke-linecap:butt;stroke-linejoin:miter;stroke:rgb(0%,0%,0%);stroke-opacity:0.0980392;stroke-miterlimit:10;" d="M 756.5 32 L 756.5 971 "/>
<path style="fill:none;stroke-width:1;stroke-linecap:butt;stroke-linejoin:miter;stroke:rgb(0%,0%,0%);stroke-opacity:0.0980392;stroke-miterlimit:10;" d="M 756.5 972 L 756.5 979.601562 "/>
<path style="fill-rule:nonzero;fill:rgb(29.411765%,75.294118%,75.294118%);fill-opacity:0.2;stroke-width:1;stroke-linecap:butt;stroke-linejoin:miter;stroke:rgb(29.411765%,75.294118%,75.294118%);stroke-opacity:1;stroke-miterlimit:10;" d="M 462.335938 10 L 502.335938 10 L 502.335938 22 L 462.335938 22 Z M 462.335938 10 "/>
<path style=" stroke:none;fill-rule:nonzero;fill:rgb(40%,40%,40%);fill-opacity:1;" d="M 514.226562 14.378906 L 515.308594 14.378906 C 515.292969 13.90625 515.203125 13.5 515.039062 13.160156 C 514.875 12.820312 514.648438 12.539062 514.367188 12.3125 C 514.082031 12.089844 513.75 11.925781 513.375 11.820312 C 513 11.71875 512.59375 11.664062 512.152344 11.664062 C 511.761719 11.664062 511.378906 11.714844 511.007812 11.816406 C 510.632812 11.914062 510.300781 12.066406 510.011719 12.273438 C 509.71875 12.476562 509.484375 12.734375 509.308594 13.050781 C 509.132812 13.367188 509.042969 13.742188 509.042969 14.171875 C 509.042969 14.566406 509.121094 14.890625 509.277344 15.152344 C 509.433594 15.410156 509.640625 15.625 509.902344 15.789062 C 510.160156 15.953125 510.457031 16.082031 510.785156 16.183594 C 511.113281 16.285156 511.445312 16.371094 511.785156 16.449219 C 512.125 16.523438 512.460938 16.597656 512.789062 16.667969 C 513.117188 16.742188 513.410156 16.835938 513.671875 16.953125 C 513.929688 17.066406 514.136719 17.21875 514.292969 17.402344 C 514.449219 17.585938 514.527344 17.824219 514.527344 18.121094 C 514.527344 18.433594 514.464844 18.691406 514.335938 18.890625 C 514.207031 19.089844 514.039062 19.246094 513.832031 19.363281 C 513.625 19.480469 513.390625 19.5625 513.128906 19.609375 C 512.871094 19.65625 512.613281 19.679688 512.355469 19.679688 C 512.035156 19.679688 511.722656 19.640625 511.421875 19.5625 C 511.117188 19.480469 510.851562 19.359375 510.621094 19.191406 C 510.394531 19.023438 510.210938 18.808594 510.070312 18.546875 C 509.929688 18.289062 509.859375 17.976562 509.859375 17.617188 L 508.78125 17.617188 C 508.78125 18.136719 508.875 18.585938 509.0625 18.96875 C 509.25 19.347656 509.507812 19.660156 509.828125 19.902344 C 510.152344 20.148438 510.53125 20.328125 510.957031 20.449219 C 511.386719 20.570312 511.839844 20.628906 512.320312 20.628906 C 512.710938 20.628906 513.105469 20.582031 513.5 20.492188 C 513.898438 20.398438 514.257812 20.25 514.574219 20.046875 C 514.894531 19.84375 515.15625 19.578125 515.363281 19.253906 C 515.566406 18.929688 515.667969 18.542969 515.667969 18.085938 C 515.667969 17.660156 515.589844 17.308594 515.433594 17.03125 C 515.277344 16.75 515.070312 16.515625 514.808594 16.332031 C 514.550781 16.148438 514.257812 16.003906 513.929688 15.894531 C 513.601562 15.789062 513.265625 15.695312 512.925781 15.613281 C 512.585938 15.535156 512.25 15.460938 511.925781 15.390625 C 511.597656 15.324219 511.300781 15.238281 511.042969 15.132812 C 510.78125 15.027344 510.574219 14.894531 510.417969 14.730469 C 510.261719 14.566406 510.183594 14.351562 510.183594 14.089844 C 510.183594 13.808594 510.238281 13.574219 510.347656 13.386719 C 510.453125 13.199219 510.597656 13.050781 510.777344 12.9375 C 510.957031 12.824219 511.164062 12.746094 511.394531 12.699219 C 511.628906 12.648438 511.863281 12.625 512.105469 12.625 C 512.695312 12.625 513.183594 12.761719 513.5625 13.039062 C 513.941406 13.316406 514.164062 13.761719 514.226562 14.378906 Z M 522.378906 20.414062 C 522.203125 20.519531 521.957031 20.570312 521.644531 20.570312 C 521.382812 20.570312 521.171875 20.496094 521.015625 20.347656 C 520.859375 20.199219 520.78125 19.957031 520.78125 19.621094 C 520.5 19.957031 520.175781 20.199219 519.804688 20.347656 C 519.433594 20.496094 519.027344 20.570312 518.597656 20.570312 C 518.316406 20.570312 518.050781 20.539062 517.800781 20.472656 C 517.546875 20.410156 517.328125 20.308594 517.144531 20.171875 C 516.960938 20.035156 516.816406 19.859375 516.707031 19.640625 C 516.597656 19.417969 516.546875 19.152344 516.546875 18.839844 C 516.546875 18.488281 516.605469 18.203125 516.726562 17.976562 C 516.847656 17.753906 517.003906 17.570312 517.199219 17.429688 C 517.394531 17.289062 517.621094 17.183594 517.871094 17.113281 C 518.125 17.042969 518.382812 16.980469 518.644531 16.933594 C 518.925781 16.878906 519.191406 16.835938 519.441406 16.808594 C 519.695312 16.78125 519.917969 16.738281 520.109375 16.6875 C 520.300781 16.636719 520.453125 16.558594 520.566406 16.460938 C 520.675781 16.359375 520.734375 16.214844 520.734375 16.023438 C 520.734375 15.796875 520.691406 15.617188 520.605469 15.480469 C 520.523438 15.34375 520.414062 15.242188 520.285156 15.167969 C 520.152344 15.097656 520.003906 15.050781 519.839844 15.027344 C 519.675781 15.003906 519.511719 14.988281 519.351562 14.988281 C 518.921875 14.988281 518.5625 15.070312 518.273438 15.234375 C 517.984375 15.398438 517.828125 15.710938 517.804688 16.164062 L 516.785156 16.164062 C 516.800781 15.78125 516.882812 15.457031 517.023438 15.195312 C 517.167969 14.929688 517.359375 14.714844 517.601562 14.550781 C 517.839844 14.386719 518.117188 14.269531 518.421875 14.199219 C 518.730469 14.125 519.0625 14.089844 519.414062 14.089844 C 519.695312 14.089844 519.972656 14.109375 520.246094 14.148438 C 520.523438 14.1875 520.773438 14.273438 520.996094 14.394531 C 521.222656 14.519531 521.402344 14.695312 521.539062 14.917969 C 521.675781 15.140625 521.742188 15.433594 521.742188 15.792969 L 521.742188 18.984375 C 521.742188 19.226562 521.753906 19.402344 521.785156 19.511719 C 521.8125 19.625 521.90625 19.679688 522.066406 19.679688 C 522.152344 19.679688 522.257812 19.660156 522.378906 19.621094 Z M 520.722656 17.234375 C 520.59375 17.328125 520.425781 17.398438 520.21875 17.445312 C 520.011719 17.488281 519.792969 17.523438 519.5625 17.550781 C 519.335938 17.578125 519.105469 17.613281 518.875 17.648438 C 518.640625 17.683594 518.433594 17.742188 518.25 17.820312 C 518.066406 17.902344 517.914062 18.015625 517.800781 18.164062 C 517.683594 18.3125 517.625 18.511719 517.625 18.769531 C 517.625 18.9375 517.660156 19.078125 517.726562 19.195312 C 517.796875 19.3125 517.882812 19.40625 517.992188 19.476562 C 518.097656 19.550781 518.226562 19.601562 518.371094 19.632812 C 518.515625 19.664062 518.664062 19.679688 518.824219 19.679688 C 519.160156 19.679688 519.449219 19.636719 519.6875 19.542969 C 519.929688 19.453125 520.125 19.335938 520.277344 19.195312 C 520.429688 19.054688 520.542969 18.902344 520.613281 18.738281 C 520.683594 18.574219 520.722656 18.421875 520.722656 18.277344 Z M 523.382812 11.871094 L 523.382812 20.4375 L 524.402344 20.4375 L 524.402344 11.871094 Z M 530.292969 16.742188 L 526.730469 16.742188 C 526.746094 16.5 526.796875 16.277344 526.886719 16.0625 C 526.976562 15.851562 527.09375 15.664062 527.246094 15.503906 C 527.398438 15.34375 527.582031 15.21875 527.792969 15.128906 C 528.003906 15.035156 528.242188 14.988281 528.507812 14.988281 C 528.761719 14.988281 528.996094 15.035156 529.207031 15.128906 C 529.421875 15.21875 529.605469 15.34375 529.761719 15.5 C 529.917969 15.65625 530.039062 15.839844 530.132812 16.058594 C 530.226562 16.273438 530.277344 16.5 530.292969 16.742188 Z M 531.277344 18.46875 L 530.269531 18.46875 C 530.183594 18.878906 530 19.179688 529.726562 19.382812 C 529.449219 19.582031 529.09375 19.679688 528.664062 19.679688 C 528.328125 19.679688 528.035156 19.625 527.785156 19.511719 C 527.539062 19.402344 527.335938 19.25 527.175781 19.0625 C 527.015625 18.875 526.898438 18.660156 526.828125 18.414062 C 526.753906 18.171875 526.722656 17.914062 526.730469 17.640625 L 531.375 17.640625 C 531.390625 17.265625 531.355469 16.871094 531.273438 16.453125 C 531.1875 16.039062 531.035156 15.652344 530.816406 15.300781 C 530.597656 14.949219 530.304688 14.660156 529.941406 14.429688 C 529.578125 14.203125 529.117188 14.089844 528.566406 14.089844 C 528.144531 14.089844 527.753906 14.167969 527.398438 14.328125 C 527.042969 14.488281 526.734375 14.714844 526.472656 15 C 526.210938 15.289062 526.011719 15.628906 525.867188 16.023438 C 525.722656 16.414062 525.652344 16.84375 525.652344 17.316406 C 525.667969 17.789062 525.738281 18.226562 525.859375 18.625 C 525.984375 19.023438 526.171875 19.371094 526.417969 19.65625 C 526.667969 19.945312 526.972656 20.167969 527.335938 20.328125 C 527.699219 20.488281 528.128906 20.570312 528.625 20.570312 C 529.332031 20.570312 529.914062 20.394531 530.378906 20.042969 C 530.84375 19.691406 531.144531 19.164062 531.277344 18.46875 Z M 533.054688 18.480469 L 532.035156 18.480469 C 532.050781 18.863281 532.132812 19.191406 532.277344 19.460938 C 532.421875 19.726562 532.613281 19.945312 532.851562 20.109375 C 533.09375 20.273438 533.367188 20.390625 533.679688 20.460938 C 533.992188 20.535156 534.320312 20.570312 534.664062 20.570312 C 534.976562 20.570312 535.289062 20.539062 535.605469 20.480469 C 535.921875 20.417969 536.207031 20.3125 536.457031 20.160156 C 536.710938 20.007812 536.914062 19.808594 537.070312 19.5625 C 537.226562 19.3125 537.304688 19 537.304688 18.625 C 537.304688 18.328125 537.246094 18.082031 537.128906 17.882812 C 537.015625 17.683594 536.863281 17.515625 536.675781 17.382812 C 536.488281 17.25 536.269531 17.144531 536.027344 17.066406 C 535.78125 16.984375 535.53125 16.917969 535.277344 16.863281 C 535.035156 16.804688 534.796875 16.75 534.554688 16.699219 C 534.316406 16.648438 534.101562 16.582031 533.90625 16.507812 C 533.714844 16.429688 533.558594 16.335938 533.433594 16.21875 C 533.308594 16.101562 533.25 15.957031 533.25 15.78125 C 533.25 15.621094 533.289062 15.492188 533.367188 15.390625 C 533.449219 15.292969 533.550781 15.210938 533.679688 15.152344 C 533.808594 15.089844 533.949219 15.050781 534.105469 15.027344 C 534.261719 15.003906 534.417969 14.988281 534.566406 14.988281 C 534.734375 14.988281 534.902344 15.007812 535.066406 15.042969 C 535.230469 15.078125 535.378906 15.136719 535.515625 15.21875 C 535.652344 15.296875 535.765625 15.402344 535.851562 15.535156 C 535.941406 15.667969 535.992188 15.832031 536.007812 16.035156 L 537.027344 16.035156 C 537.003906 15.65625 536.925781 15.34375 536.789062 15.089844 C 536.652344 14.839844 536.46875 14.640625 536.242188 14.492188 C 536.015625 14.34375 535.753906 14.238281 535.457031 14.179688 C 535.160156 14.121094 534.835938 14.089844 534.484375 14.089844 C 534.210938 14.089844 533.9375 14.125 533.660156 14.191406 C 533.386719 14.257812 533.136719 14.363281 532.917969 14.503906 C 532.699219 14.644531 532.519531 14.824219 532.378906 15.050781 C 532.238281 15.273438 532.167969 15.542969 532.167969 15.851562 C 532.167969 16.253906 532.269531 16.566406 532.46875 16.789062 C 532.667969 17.011719 532.917969 17.1875 533.21875 17.3125 C 533.519531 17.4375 533.84375 17.53125 534.195312 17.597656 C 534.546875 17.667969 534.875 17.742188 535.175781 17.828125 C 535.476562 17.910156 535.722656 18.023438 535.925781 18.15625 C 536.125 18.292969 536.222656 18.492188 536.222656 18.757812 C 536.222656 18.949219 536.175781 19.109375 536.078125 19.230469 C 535.984375 19.355469 535.863281 19.449219 535.714844 19.511719 C 535.566406 19.578125 535.402344 19.621094 535.226562 19.644531 C 535.050781 19.667969 534.882812 19.679688 534.722656 19.679688 C 534.515625 19.679688 534.3125 19.660156 534.117188 19.621094 C 533.921875 19.582031 533.746094 19.515625 533.589844 19.421875 C 533.433594 19.332031 533.308594 19.207031 533.210938 19.050781 C 533.117188 18.894531 533.0625 18.707031 533.054688 18.480469 Z M 508.335938 9.011719 "/>
<path style="fill:none;stroke-width:1;stroke-linecap:butt;stroke-linejoin:miter;stroke:rgb(0%,0%,0%);stroke-opacity:0.0980392;stroke-miterlimit:10;" d="M 27.5 32 L 27.5 972 "/>
<path style=" stroke:none;fill-rule:nonzero;fill:rgb(40%,40%,40%);fill-opacity:1;" d="M 10.929688 971.84375 C 10.929688 971.636719 10.929688 971.40625 10.933594 971.152344 C 10.9375 970.902344 10.957031 970.648438 10.992188 970.398438 C 11.027344 970.144531 11.082031 969.898438 11.148438 969.660156 C 11.21875 969.417969 11.316406 969.210938 11.449219 969.027344 C 11.582031 968.847656 11.746094 968.703125 11.949219 968.589844 C 12.148438 968.480469 12.390625 968.421875 12.679688 968.421875 C 12.96875 968.421875 13.210938 968.480469 13.410156 968.589844 C 13.609375 968.703125 13.777344 968.847656 13.910156 969.027344 C 14.042969 969.207031 14.140625 969.417969 14.210938 969.660156 C 14.277344 969.898438 14.328125 970.144531 14.367188 970.398438 C 14.402344 970.648438 14.421875 970.902344 14.425781 971.152344 C 14.429688 971.40625 14.433594 971.636719 14.433594 971.84375 C 14.433594 972.164062 14.421875 972.519531 14.402344 972.917969 C 14.382812 973.3125 14.316406 973.683594 14.210938 974.035156 C 14.101562 974.382812 13.929688 974.675781 13.6875 974.914062 C 13.449219 975.15625 13.113281 975.273438 12.679688 975.273438 C 12.246094 975.273438 11.910156 975.15625 11.671875 974.914062 C 11.433594 974.675781 11.257812 974.382812 11.148438 974.035156 C 11.042969 973.6875 10.976562 973.3125 10.957031 972.917969 C 10.9375 972.523438 10.929688 972.164062 10.929688 971.84375 Z M 9.847656 971.855469 C 9.847656 972.167969 9.855469 972.492188 9.871094 972.828125 C 9.886719 973.164062 9.929688 973.492188 9.992188 973.8125 C 10.054688 974.132812 10.148438 974.433594 10.269531 974.71875 C 10.386719 975 10.550781 975.25 10.757812 975.46875 C 10.96875 975.683594 11.230469 975.851562 11.546875 975.976562 C 11.863281 976.101562 12.238281 976.164062 12.679688 976.164062 C 13.128906 976.164062 13.507812 976.101562 13.820312 975.976562 C 14.132812 975.851562 14.390625 975.683594 14.601562 975.46875 C 14.808594 975.25 14.972656 975 15.089844 974.71875 C 15.210938 974.433594 15.304688 974.132812 15.367188 973.8125 C 15.429688 973.492188 15.472656 973.164062 15.488281 972.828125 C 15.503906 972.492188 15.511719 972.167969 15.511719 971.855469 C 15.511719 971.542969 15.503906 971.21875 15.488281 970.882812 C 15.472656 970.546875 15.433594 970.21875 15.367188 969.898438 C 15.304688 969.578125 15.210938 969.273438 15.089844 968.988281 C 14.972656 968.699219 14.808594 968.445312 14.601562 968.230469 C 14.390625 968.015625 14.128906 967.84375 13.8125 967.714844 C 13.496094 967.585938 13.121094 967.523438 12.679688 967.523438 C 12.238281 967.523438 11.863281 967.585938 11.546875 967.714844 C 11.230469 967.84375 10.96875 968.015625 10.757812 968.230469 C 10.550781 968.445312 10.386719 968.699219 10.269531 968.988281 C 10.148438 969.277344 10.054688 969.578125 9.992188 969.898438 C 9.929688 970.21875 9.886719 970.546875 9.871094 970.882812 C 9.855469 971.21875 9.847656 971.542969 9.847656 971.855469 Z M 9.34375 964.609375 "/>
<path style=" stroke:none;fill-rule:nonzero;fill:rgb(40%,40%,40%);fill-opacity:1;" d="M 14.984375 851.121094 L 14.984375 850.222656 L 10.785156 850.222656 L 9.992188 854.636719 L 10.867188 854.6875 C 11.066406 854.445312 11.296875 854.25 11.558594 854.105469 C 11.816406 853.957031 12.117188 853.882812 12.453125 853.882812 C 12.738281 853.882812 13 853.929688 13.238281 854.027344 C 13.472656 854.121094 13.675781 854.257812 13.84375 854.429688 C 14.011719 854.601562 14.140625 854.804688 14.234375 855.039062 C 14.324219 855.277344 14.371094 855.535156 14.371094 855.8125 C 14.371094 856.148438 14.324219 856.445312 14.226562 856.695312 C 14.132812 856.949219 14 857.15625 13.835938 857.324219 C 13.671875 857.492188 13.480469 857.621094 13.261719 857.703125 C 13.042969 857.789062 12.8125 857.828125 12.570312 857.828125 C 12.316406 857.828125 12.082031 857.792969 11.871094 857.714844 C 11.65625 857.640625 11.472656 857.53125 11.316406 857.390625 C 11.160156 857.25 11.039062 857.089844 10.945312 856.898438 C 10.855469 856.710938 10.800781 856.511719 10.785156 856.292969 L 9.765625 856.292969 C 9.773438 856.675781 9.847656 857.023438 9.992188 857.324219 C 10.136719 857.628906 10.332031 857.882812 10.578125 858.089844 C 10.828125 858.292969 11.113281 858.449219 11.4375 858.554688 C 11.761719 858.664062 12.109375 858.71875 12.476562 858.71875 C 12.972656 858.71875 13.40625 858.640625 13.777344 858.484375 C 14.148438 858.328125 14.460938 858.117188 14.707031 857.855469 C 14.957031 857.589844 15.140625 857.289062 15.265625 856.949219 C 15.390625 856.609375 15.453125 856.257812 15.453125 855.898438 C 15.453125 855.410156 15.378906 854.984375 15.234375 854.621094 C 15.089844 854.257812 14.894531 853.953125 14.648438 853.707031 C 14.398438 853.464844 14.109375 853.28125 13.773438 853.160156 C 13.4375 853.042969 13.078125 852.980469 12.703125 852.980469 C 12.414062 852.980469 12.125 853.03125 11.832031 853.132812 C 11.542969 853.230469 11.304688 853.386719 11.121094 853.59375 L 11.097656 853.570312 L 11.550781 851.121094 Z M 9.34375 847.160156 "/>
<path style=" stroke:none;fill-rule:nonzero;fill:rgb(40%,40%,40%);fill-opacity:1;" d="M 6.617188 741.132812 L 6.617188 732.625 L 5.835938 732.625 C 5.78125 732.945312 5.675781 733.207031 5.523438 733.417969 C 5.371094 733.625 5.1875 733.789062 4.964844 733.910156 C 4.746094 734.027344 4.5 734.109375 4.226562 734.15625 C 3.957031 734.199219 3.675781 734.222656 3.386719 734.222656 L 3.386719 735.035156 L 5.597656 735.035156 L 5.597656 741.132812 Z M 10.601562 736.945312 C 10.601562 736.738281 10.601562 736.507812 10.605469 736.253906 C 10.609375 736.003906 10.628906 735.75 10.664062 735.5 C 10.699219 735.246094 10.753906 735 10.820312 734.761719 C 10.890625 734.519531 10.988281 734.3125 11.121094 734.128906 C 11.253906 733.949219 11.417969 733.804688 11.621094 733.691406 C 11.820312 733.582031 12.0625 733.523438 12.351562 733.523438 C 12.640625 733.523438 12.882812 733.582031 13.082031 733.691406 C 13.28125 733.804688 13.449219 733.949219 13.582031 734.128906 C 13.714844 734.308594 13.8125 734.519531 13.882812 734.761719 C 13.949219 735 14 735.246094 14.039062 735.5 C 14.074219 735.75 14.09375 736.003906 14.097656 736.253906 C 14.101562 736.507812 14.105469 736.738281 14.105469 736.945312 C 14.105469 737.265625 14.09375 737.621094 14.074219 738.019531 C 14.054688 738.414062 13.988281 738.785156 13.882812 739.136719 C 13.773438 739.484375 13.601562 739.777344 13.359375 740.015625 C 13.121094 740.257812 12.785156 740.375 12.351562 740.375 C 11.917969 740.375 11.582031 740.257812 11.34375 740.015625 C 11.105469 739.777344 10.929688 739.484375 10.820312 739.136719 C 10.714844 738.789062 10.648438 738.414062 10.628906 738.019531 C 10.609375 737.625 10.601562 737.265625 10.601562 736.945312 Z M 9.519531 736.957031 C 9.519531 737.269531 9.527344 737.59375 9.542969 737.929688 C 9.558594 738.265625 9.601562 738.59375 9.664062 738.914062 C 9.726562 739.234375 9.820312 739.535156 9.941406 739.820312 C 10.058594 740.101562 10.222656 740.351562 10.429688 740.570312 C 10.640625 740.785156 10.902344 740.953125 11.21875 741.078125 C 11.535156 741.203125 11.910156 741.265625 12.351562 741.265625 C 12.800781 741.265625 13.179688 741.203125 13.492188 741.078125 C 13.804688 740.953125 14.0625 740.785156 14.273438 740.570312 C 14.480469 740.351562 14.644531 740.101562 14.761719 739.820312 C 14.882812 739.535156 14.976562 739.234375 15.039062 738.914062 C 15.101562 738.59375 15.144531 738.265625 15.160156 737.929688 C 15.175781 737.59375 15.183594 737.269531 15.183594 736.957031 C 15.183594 736.644531 15.175781 736.320312 15.160156 735.984375 C 15.144531 735.648438 15.105469 735.320312 15.039062 735 C 14.976562 734.679688 14.882812 734.375 14.761719 734.089844 C 14.644531 733.800781 14.480469 733.546875 14.273438 733.332031 C 14.0625 733.117188 13.800781 732.945312 13.484375 732.816406 C 13.167969 732.6875 12.792969 732.625 12.351562 732.625 C 11.910156 732.625 11.535156 732.6875 11.21875 732.816406 C 10.902344 732.945312 10.640625 733.117188 10.429688 733.332031 C 10.222656 733.546875 10.058594 733.800781 9.941406 734.089844 C 9.820312 734.378906 9.726562 734.679688 9.664062 735 C 9.601562 735.320312 9.558594 735.648438 9.542969 735.984375 C 9.527344 736.320312 9.519531 736.644531 9.519531 736.957031 Z M 2.34375 729.710938 "/>
<path style=" stroke:none;fill-rule:nonzero;fill:rgb(40%,40%,40%);fill-opacity:1;" d="M 6.617188 623.6875 L 6.617188 615.179688 L 5.835938 615.179688 C 5.78125 615.5 5.675781 615.761719 5.523438 615.972656 C 5.371094 616.179688 5.1875 616.34375 4.964844 616.464844 C 4.746094 616.582031 4.5 616.664062 4.226562 616.710938 C 3.957031 616.753906 3.675781 616.777344 3.386719 616.777344 L 3.386719 617.589844 L 5.597656 617.589844 L 5.597656 623.6875 Z M 14.65625 616.222656 L 14.65625 615.324219 L 10.457031 615.324219 L 9.664062 619.738281 L 10.539062 619.789062 C 10.738281 619.546875 10.96875 619.351562 11.230469 619.207031 C 11.488281 619.058594 11.789062 618.984375 12.125 618.984375 C 12.410156 618.984375 12.671875 619.03125 12.910156 619.128906 C 13.144531 619.222656 13.347656 619.359375 13.515625 619.53125 C 13.683594 619.703125 13.8125 619.90625 13.90625 620.140625 C 13.996094 620.378906 14.042969 620.636719 14.042969 620.914062 C 14.042969 621.25 13.996094 621.546875 13.898438 621.796875 C 13.804688 622.050781 13.671875 622.257812 13.507812 622.425781 C 13.34375 622.59375 13.152344 622.722656 12.933594 622.804688 C 12.714844 622.890625 12.484375 622.929688 12.242188 622.929688 C 11.988281 622.929688 11.753906 622.894531 11.542969 622.816406 C 11.328125 622.742188 11.144531 622.632812 10.988281 622.492188 C 10.832031 622.351562 10.710938 622.191406 10.617188 622 C 10.527344 621.8125 10.472656 621.613281 10.457031 621.394531 L 9.4375 621.394531 C 9.445312 621.777344 9.519531 622.125 9.664062 622.425781 C 9.808594 622.730469 10.003906 622.984375 10.25 623.191406 C 10.5 623.394531 10.785156 623.550781 11.109375 623.65625 C 11.433594 623.765625 11.78125 623.820312 12.148438 623.820312 C 12.644531 623.820312 13.078125 623.742188 13.449219 623.585938 C 13.820312 623.429688 14.132812 623.21875 14.378906 622.957031 C 14.628906 622.691406 14.8125 622.390625 14.9375 622.050781 C 15.0625 621.710938 15.125 621.359375 15.125 621 C 15.125 620.511719 15.050781 620.085938 14.90625 619.722656 C 14.761719 619.359375 14.566406 619.054688 14.320312 618.808594 C 14.070312 618.566406 13.78125 618.382812 13.445312 618.261719 C 13.109375 618.144531 12.75 618.082031 12.375 618.082031 C 12.085938 618.082031 11.796875 618.132812 11.503906 618.234375 C 11.214844 618.332031 10.976562 618.488281 10.792969 618.695312 L 10.769531 618.671875 L 11.222656 616.222656 Z M 2.34375 612.261719 "/>
<path style=" stroke:none;fill-rule:nonzero;fill:rgb(40%,40%,40%);fill-opacity:1;" d="M 2.871094 500.738281 L 3.890625 500.738281 C 3.882812 500.480469 3.910156 500.226562 3.96875 499.976562 C 4.03125 499.722656 4.128906 499.5 4.265625 499.296875 C 4.398438 499.097656 4.574219 498.9375 4.785156 498.8125 C 4.996094 498.6875 5.25 498.625 5.546875 498.625 C 5.769531 498.625 5.984375 498.664062 6.183594 498.734375 C 6.382812 498.804688 6.558594 498.910156 6.707031 499.046875 C 6.855469 499.183594 6.972656 499.34375 7.058594 499.53125 C 7.148438 499.71875 7.191406 499.929688 7.191406 500.164062 C 7.191406 500.457031 7.144531 500.71875 7.054688 500.941406 C 6.960938 501.167969 6.824219 501.375 6.644531 501.566406 C 6.464844 501.757812 6.238281 501.949219 5.96875 502.136719 C 5.695312 502.324219 5.378906 502.53125 5.019531 502.753906 C 4.722656 502.929688 4.441406 503.117188 4.167969 503.320312 C 3.894531 503.519531 3.652344 503.75 3.4375 504.015625 C 3.21875 504.277344 3.042969 504.589844 2.902344 504.945312 C 2.761719 505.300781 2.671875 505.730469 2.632812 506.234375 L 8.1875 506.234375 L 8.1875 505.335938 L 3.820312 505.335938 C 3.867188 505.070312 3.96875 504.835938 4.125 504.632812 C 4.28125 504.429688 4.46875 504.238281 4.691406 504.0625 C 4.910156 503.886719 5.152344 503.71875 5.414062 503.5625 C 5.679688 503.40625 5.945312 503.25 6.207031 503.089844 C 6.472656 502.921875 6.726562 502.746094 6.976562 502.5625 C 7.222656 502.378906 7.445312 502.171875 7.636719 501.945312 C 7.828125 501.714844 7.980469 501.457031 8.097656 501.171875 C 8.214844 500.882812 8.273438 500.550781 8.273438 500.175781 C 8.273438 499.773438 8.203125 499.421875 8.0625 499.117188 C 7.921875 498.8125 7.730469 498.558594 7.492188 498.355469 C 7.25 498.152344 6.96875 497.996094 6.644531 497.886719 C 6.320312 497.78125 5.976562 497.726562 5.609375 497.726562 C 5.160156 497.726562 4.757812 497.800781 4.40625 497.953125 C 4.054688 498.105469 3.761719 498.316406 3.527344 498.585938 C 3.289062 498.851562 3.117188 499.171875 3.003906 499.539062 C 2.890625 499.90625 2.847656 500.304688 2.871094 500.738281 Z M 10.601562 502.046875 C 10.601562 501.839844 10.601562 501.609375 10.605469 501.355469 C 10.609375 501.105469 10.628906 500.851562 10.664062 500.601562 C 10.699219 500.347656 10.753906 500.101562 10.820312 499.863281 C 10.890625 499.621094 10.988281 499.414062 11.121094 499.230469 C 11.253906 499.050781 11.417969 498.90625 11.621094 498.792969 C 11.820312 498.683594 12.0625 498.625 12.351562 498.625 C 12.640625 498.625 12.882812 498.683594 13.082031 498.792969 C 13.28125 498.90625 13.449219 499.050781 13.582031 499.230469 C 13.714844 499.410156 13.8125 499.621094 13.882812 499.863281 C 13.949219 500.101562 14 500.347656 14.039062 500.601562 C 14.074219 500.851562 14.09375 501.105469 14.097656 501.355469 C 14.101562 501.609375 14.105469 501.839844 14.105469 502.046875 C 14.105469 502.367188 14.09375 502.722656 14.074219 503.121094 C 14.054688 503.515625 13.988281 503.886719 13.882812 504.238281 C 13.773438 504.585938 13.601562 504.878906 13.359375 505.117188 C 13.121094 505.359375 12.785156 505.476562 12.351562 505.476562 C 11.917969 505.476562 11.582031 505.359375 11.34375 505.117188 C 11.105469 504.878906 10.929688 504.585938 10.820312 504.238281 C 10.714844 503.890625 10.648438 503.515625 10.628906 503.121094 C 10.609375 502.726562 10.601562 502.367188 10.601562 502.046875 Z M 9.519531 502.058594 C 9.519531 502.371094 9.527344 502.695312 9.542969 503.03125 C 9.558594 503.367188 9.601562 503.695312 9.664062 504.015625 C 9.726562 504.335938 9.820312 504.636719 9.941406 504.921875 C 10.058594 505.203125 10.222656 505.453125 10.429688 505.671875 C 10.640625 505.886719 10.902344 506.054688 11.21875 506.179688 C 11.535156 506.304688 11.910156 506.367188 12.351562 506.367188 C 12.800781 506.367188 13.179688 506.304688 13.492188 506.179688 C 13.804688 506.054688 14.0625 505.886719 14.273438 505.671875 C 14.480469 505.453125 14.644531 505.203125 14.761719 504.921875 C 14.882812 504.636719 14.976562 504.335938 15.039062 504.015625 C 15.101562 503.695312 15.144531 503.367188 15.160156 503.03125 C 15.175781 502.695312 15.183594 502.371094 15.183594 502.058594 C 15.183594 501.746094 15.175781 501.421875 15.160156 501.085938 C 15.144531 500.75 15.105469 500.421875 15.039062 500.101562 C 14.976562 499.78125 14.882812 499.476562 14.761719 499.191406 C 14.644531 498.902344 14.480469 498.648438 14.273438 498.433594 C 14.0625 498.21875 13.800781 498.046875 13.484375 497.917969 C 13.167969 497.789062 12.792969 497.726562 12.351562 497.726562 C 11.910156 497.726562 11.535156 497.789062 11.21875 497.917969 C 10.902344 498.046875 10.640625 498.21875 10.429688 498.433594 C 10.222656 498.648438 10.058594 498.902344 9.941406 499.191406 C 9.820312 499.480469 9.726562 499.78125 9.664062 500.101562 C 9.601562 500.421875 9.558594 500.75 9.542969 501.085938 C 9.527344 501.421875 9.519531 501.746094 9.519531 502.058594 Z M 2.34375 494.808594 "/>
<path style=" stroke:none;fill-rule:nonzero;fill:rgb(40%,40%,40%);fill-opacity:1;" d="M 2.871094 383.285156 L 3.890625 383.285156 C 3.882812 383.027344 3.910156 382.773438 3.96875 382.523438 C 4.03125 382.269531 4.128906 382.046875 4.265625 381.84375 C 4.398438 381.644531 4.574219 381.484375 4.785156 381.359375 C 4.996094 381.234375 5.25 381.171875 5.546875 381.171875 C 5.769531 381.171875 5.984375 381.210938 6.183594 381.28125 C 6.382812 381.351562 6.558594 381.457031 6.707031 381.59375 C 6.855469 381.730469 6.972656 381.890625 7.058594 382.078125 C 7.148438 382.265625 7.191406 382.476562 7.191406 382.710938 C 7.191406 383.003906 7.144531 383.265625 7.054688 383.488281 C 6.960938 383.714844 6.824219 383.921875 6.644531 384.113281 C 6.464844 384.304688 6.238281 384.496094 5.96875 384.683594 C 5.695312 384.871094 5.378906 385.078125 5.019531 385.300781 C 4.722656 385.476562 4.441406 385.664062 4.167969 385.867188 C 3.894531 386.066406 3.652344 386.296875 3.4375 386.5625 C 3.21875 386.824219 3.042969 387.136719 2.902344 387.492188 C 2.761719 387.847656 2.671875 388.277344 2.632812 388.78125 L 8.1875 388.78125 L 8.1875 387.882812 L 3.820312 387.882812 C 3.867188 387.617188 3.96875 387.382812 4.125 387.179688 C 4.28125 386.976562 4.46875 386.785156 4.691406 386.609375 C 4.910156 386.433594 5.152344 386.265625 5.414062 386.109375 C 5.679688 385.953125 5.945312 385.796875 6.207031 385.636719 C 6.472656 385.46875 6.726562 385.292969 6.976562 385.109375 C 7.222656 384.925781 7.445312 384.71875 7.636719 384.492188 C 7.828125 384.261719 7.980469 384.003906 8.097656 383.71875 C 8.214844 383.429688 8.273438 383.097656 8.273438 382.722656 C 8.273438 382.320312 8.203125 381.96875 8.0625 381.664062 C 7.921875 381.359375 7.730469 381.105469 7.492188 380.902344 C 7.25 380.699219 6.96875 380.542969 6.644531 380.433594 C 6.320312 380.328125 5.976562 380.273438 5.609375 380.273438 C 5.160156 380.273438 4.757812 380.347656 4.40625 380.5 C 4.054688 380.652344 3.761719 380.863281 3.527344 381.132812 C 3.289062 381.398438 3.117188 381.71875 3.003906 382.085938 C 2.890625 382.453125 2.847656 382.851562 2.871094 383.285156 Z M 14.65625 381.316406 L 14.65625 380.417969 L 10.457031 380.417969 L 9.664062 384.832031 L 10.539062 384.882812 C 10.738281 384.640625 10.96875 384.445312 11.230469 384.300781 C 11.488281 384.152344 11.789062 384.078125 12.125 384.078125 C 12.410156 384.078125 12.671875 384.125 12.910156 384.222656 C 13.144531 384.316406 13.347656 384.453125 13.515625 384.625 C 13.683594 384.796875 13.8125 385 13.90625 385.234375 C 13.996094 385.472656 14.042969 385.730469 14.042969 386.007812 C 14.042969 386.34375 13.996094 386.640625 13.898438 386.890625 C 13.804688 387.144531 13.671875 387.351562 13.507812 387.519531 C 13.34375 387.6875 13.152344 387.816406 12.933594 387.898438 C 12.714844 387.984375 12.484375 388.023438 12.242188 388.023438 C 11.988281 388.023438 11.753906 387.988281 11.542969 387.910156 C 11.328125 387.835938 11.144531 387.726562 10.988281 387.585938 C 10.832031 387.445312 10.710938 387.285156 10.617188 387.09375 C 10.527344 386.90625 10.472656 386.707031 10.457031 386.488281 L 9.4375 386.488281 C 9.445312 386.871094 9.519531 387.21875 9.664062 387.519531 C 9.808594 387.824219 10.003906 388.078125 10.25 388.285156 C 10.5 388.488281 10.785156 388.644531 11.109375 388.75 C 11.433594 388.859375 11.78125 388.914062 12.148438 388.914062 C 12.644531 388.914062 13.078125 388.835938 13.449219 388.679688 C 13.820312 388.523438 14.132812 388.3125 14.378906 388.050781 C 14.628906 387.785156 14.8125 387.484375 14.9375 387.144531 C 15.0625 386.804688 15.125 386.453125 15.125 386.09375 C 15.125 385.605469 15.050781 385.179688 14.90625 384.816406 C 14.761719 384.453125 14.566406 384.148438 14.320312 383.902344 C 14.070312 383.660156 13.78125 383.476562 13.445312 383.355469 C 13.109375 383.238281 12.75 383.175781 12.375 383.175781 C 12.085938 383.175781 11.796875 383.226562 11.503906 383.328125 C 11.214844 383.425781 10.976562 383.582031 10.792969 383.789062 L 10.769531 383.765625 L 11.222656 381.316406 Z M 2.34375 377.359375 "/>
<path style=" stroke:none;fill-rule:nonzero;fill:rgb(40%,40%,40%);fill-opacity:1;" d="M 4.960938 266.476562 L 4.960938 267.339844 C 5.152344 267.316406 5.355469 267.304688 5.570312 267.304688 C 5.828125 267.304688 6.066406 267.339844 6.285156 267.40625 C 6.503906 267.472656 6.695312 267.578125 6.855469 267.71875 C 7.015625 267.859375 7.144531 268.03125 7.238281 268.234375 C 7.335938 268.4375 7.382812 268.671875 7.382812 268.9375 C 7.382812 269.191406 7.332031 269.421875 7.234375 269.625 C 7.132812 269.828125 7 270 6.832031 270.140625 C 6.664062 270.28125 6.46875 270.390625 6.242188 270.464844 C 6.019531 270.542969 5.785156 270.578125 5.535156 270.578125 C 4.953125 270.578125 4.507812 270.40625 4.203125 270.058594 C 3.898438 269.710938 3.738281 269.261719 3.722656 268.707031 L 2.703125 268.707031 C 2.695312 269.148438 2.757812 269.539062 2.890625 269.882812 C 3.023438 270.226562 3.210938 270.519531 3.460938 270.753906 C 3.707031 270.988281 4.007812 271.167969 4.359375 271.289062 C 4.710938 271.410156 5.105469 271.46875 5.535156 271.46875 C 5.9375 271.46875 6.3125 271.414062 6.667969 271.304688 C 7.023438 271.199219 7.335938 271.035156 7.601562 270.820312 C 7.863281 270.605469 8.074219 270.332031 8.230469 270.011719 C 8.386719 269.6875 8.464844 269.3125 8.464844 268.886719 C 8.464844 268.375 8.335938 267.933594 8.085938 267.554688 C 7.832031 267.179688 7.449219 266.9375 6.929688 266.824219 L 6.929688 266.800781 C 7.265625 266.648438 7.542969 266.425781 7.769531 266.128906 C 7.992188 265.832031 8.105469 265.492188 8.105469 265.109375 C 8.105469 264.714844 8.039062 264.375 7.90625 264.089844 C 7.773438 263.800781 7.589844 263.5625 7.359375 263.378906 C 7.128906 263.195312 6.855469 263.058594 6.539062 262.964844 C 6.222656 262.875 5.878906 262.828125 5.511719 262.828125 C 5.085938 262.828125 4.714844 262.894531 4.390625 263.03125 C 4.066406 263.167969 3.796875 263.355469 3.578125 263.597656 C 3.363281 263.835938 3.199219 264.125 3.082031 264.460938 C 2.964844 264.796875 2.898438 265.167969 2.882812 265.574219 L 3.902344 265.574219 C 3.902344 265.328125 3.9375 265.09375 4 264.867188 C 4.0625 264.644531 4.160156 264.449219 4.292969 264.28125 C 4.425781 264.113281 4.59375 263.976562 4.796875 263.878906 C 5 263.777344 5.238281 263.726562 5.511719 263.726562 C 5.945312 263.726562 6.304688 263.84375 6.589844 264.070312 C 6.878906 264.296875 7.023438 264.640625 7.023438 265.097656 C 7.023438 265.320312 6.980469 265.519531 6.890625 265.695312 C 6.804688 265.871094 6.6875 266.019531 6.539062 266.132812 C 6.390625 266.25 6.21875 266.339844 6.023438 266.398438 C 5.828125 266.457031 5.621094 266.488281 5.402344 266.488281 L 5.1875 266.488281 C 5.148438 266.488281 5.109375 266.488281 5.066406 266.488281 C 5.035156 266.488281 5 266.484375 4.960938 266.476562 Z M 10.601562 267.148438 C 10.601562 266.941406 10.601562 266.710938 10.605469 266.457031 C 10.609375 266.207031 10.628906 265.953125 10.664062 265.703125 C 10.699219 265.449219 10.753906 265.203125 10.820312 264.964844 C 10.890625 264.722656 10.988281 264.515625 11.121094 264.332031 C 11.253906 264.152344 11.417969 264.007812 11.621094 263.894531 C 11.820312 263.785156 12.0625 263.726562 12.351562 263.726562 C 12.640625 263.726562 12.882812 263.785156 13.082031 263.894531 C 13.28125 264.007812 13.449219 264.152344 13.582031 264.332031 C 13.714844 264.511719 13.8125 264.722656 13.882812 264.964844 C 13.949219 265.203125 14 265.449219 14.039062 265.703125 C 14.074219 265.953125 14.09375 266.207031 14.097656 266.457031 C 14.101562 266.710938 14.105469 266.941406 14.105469 267.148438 C 14.105469 267.46875 14.09375 267.824219 14.074219 268.222656 C 14.054688 268.617188 13.988281 268.988281 13.882812 269.339844 C 13.773438 269.6875 13.601562 269.980469 13.359375 270.21875 C 13.121094 270.460938 12.785156 270.578125 12.351562 270.578125 C 11.917969 270.578125 11.582031 270.460938 11.34375 270.21875 C 11.105469 269.980469 10.929688 269.6875 10.820312 269.339844 C 10.714844 268.992188 10.648438 268.617188 10.628906 268.222656 C 10.609375 267.828125 10.601562 267.46875 10.601562 267.148438 Z M 9.519531 267.160156 C 9.519531 267.472656 9.527344 267.796875 9.542969 268.132812 C 9.558594 268.46875 9.601562 268.796875 9.664062 269.117188 C 9.726562 269.4375 9.820312 269.738281 9.941406 270.023438 C 10.058594 270.304688 10.222656 270.554688 10.429688 270.773438 C 10.640625 270.988281 10.902344 271.15625 11.21875 271.28125 C 11.535156 271.40625 11.910156 271.46875 12.351562 271.46875 C 12.800781 271.46875 13.179688 271.40625 13.492188 271.28125 C 13.804688 271.15625 14.0625 270.988281 14.273438 270.773438 C 14.480469 270.554688 14.644531 270.304688 14.761719 270.023438 C 14.882812 269.738281 14.976562 269.4375 15.039062 269.117188 C 15.101562 268.796875 15.144531 268.46875 15.160156 268.132812 C 15.175781 267.796875 15.183594 267.472656 15.183594 267.160156 C 15.183594 266.847656 15.175781 266.523438 15.160156 266.1875 C 15.144531 265.851562 15.105469 265.523438 15.039062 265.203125 C 14.976562 264.882812 14.882812 264.578125 14.761719 264.292969 C 14.644531 264.003906 14.480469 263.75 14.273438 263.535156 C 14.0625 263.320312 13.800781 263.148438 13.484375 263.019531 C 13.167969 262.890625 12.792969 262.828125 12.351562 262.828125 C 11.910156 262.828125 11.535156 262.890625 11.21875 263.019531 C 10.902344 263.148438 10.640625 263.320312 10.429688 263.535156 C 10.222656 263.75 10.058594 264.003906 9.941406 264.292969 C 9.820312 264.582031 9.726562 264.882812 9.664062 265.203125 C 9.601562 265.523438 9.558594 265.851562 9.542969 266.1875 C 9.527344 266.523438 9.519531 266.847656 9.519531 267.160156 Z M 2.34375 259.910156 "/>
<path style=" stroke:none;fill-rule:nonzero;fill:rgb(40%,40%,40%);fill-opacity:1;" d="M 4.960938 149.023438 L 4.960938 149.886719 C 5.152344 149.863281 5.355469 149.851562 5.570312 149.851562 C 5.828125 149.851562 6.066406 149.886719 6.285156 149.953125 C 6.503906 150.019531 6.695312 150.125 6.855469 150.265625 C 7.015625 150.40625 7.144531 150.578125 7.238281 150.78125 C 7.335938 150.984375 7.382812 151.21875 7.382812 151.484375 C 7.382812 151.738281 7.332031 151.96875 7.234375 152.171875 C 7.132812 152.375 7 152.546875 6.832031 152.6875 C 6.664062 152.828125 6.46875 152.9375 6.242188 153.011719 C 6.019531 153.089844 5.785156 153.125 5.535156 153.125 C 4.953125 153.125 4.507812 152.953125 4.203125 152.605469 C 3.898438 152.257812 3.738281 151.808594 3.722656 151.253906 L 2.703125 151.253906 C 2.695312 151.695312 2.757812 152.085938 2.890625 152.429688 C 3.023438 152.773438 3.210938 153.066406 3.460938 153.300781 C 3.707031 153.535156 4.007812 153.714844 4.359375 153.835938 C 4.710938 153.957031 5.105469 154.015625 5.535156 154.015625 C 5.9375 154.015625 6.3125 153.960938 6.667969 153.851562 C 7.023438 153.746094 7.335938 153.582031 7.601562 153.367188 C 7.863281 153.152344 8.074219 152.878906 8.230469 152.558594 C 8.386719 152.234375 8.464844 151.859375 8.464844 151.433594 C 8.464844 150.921875 8.335938 150.480469 8.085938 150.101562 C 7.832031 149.726562 7.449219 149.484375 6.929688 149.371094 L 6.929688 149.347656 C 7.265625 149.195312 7.542969 148.972656 7.769531 148.675781 C 7.992188 148.378906 8.105469 148.039062 8.105469 147.65625 C 8.105469 147.261719 8.039062 146.921875 7.90625 146.636719 C 7.773438 146.347656 7.589844 146.109375 7.359375 145.925781 C 7.128906 145.742188 6.855469 145.605469 6.539062 145.511719 C 6.222656 145.421875 5.878906 145.375 5.511719 145.375 C 5.085938 145.375 4.714844 145.441406 4.390625 145.578125 C 4.066406 145.714844 3.796875 145.902344 3.578125 146.144531 C 3.363281 146.382812 3.199219 146.671875 3.082031 147.007812 C 2.964844 147.34375 2.898438 147.714844 2.882812 148.121094 L 3.902344 148.121094 C 3.902344 147.875 3.9375 147.640625 4 147.414062 C 4.0625 147.191406 4.160156 146.996094 4.292969 146.828125 C 4.425781 146.660156 4.59375 146.523438 4.796875 146.425781 C 5 146.324219 5.238281 146.273438 5.511719 146.273438 C 5.945312 146.273438 6.304688 146.390625 6.589844 146.617188 C 6.878906 146.84375 7.023438 147.1875 7.023438 147.644531 C 7.023438 147.867188 6.980469 148.066406 6.890625 148.242188 C 6.804688 148.417969 6.6875 148.566406 6.539062 148.679688 C 6.390625 148.796875 6.21875 148.886719 6.023438 148.945312 C 5.828125 149.003906 5.621094 149.035156 5.402344 149.035156 L 5.1875 149.035156 C 5.148438 149.035156 5.109375 149.035156 5.066406 149.035156 C 5.035156 149.035156 5 149.03125 4.960938 149.023438 Z M 14.65625 146.417969 L 14.65625 145.519531 L 10.457031 145.519531 L 9.664062 149.933594 L 10.539062 149.984375 C 10.738281 149.742188 10.96875 149.546875 11.230469 149.402344 C 11.488281 149.253906 11.789062 149.179688 12.125 149.179688 C 12.410156 149.179688 12.671875 149.226562 12.910156 149.324219 C 13.144531 149.417969 13.347656 149.554688 13.515625 149.726562 C 13.683594 149.898438 13.8125 150.101562 13.90625 150.335938 C 13.996094 150.574219 14.042969 150.832031 14.042969 151.109375 C 14.042969 151.445312 13.996094 151.742188 13.898438 151.992188 C 13.804688 152.246094 13.671875 152.453125 13.507812 152.621094 C 13.34375 152.789062 13.152344 152.917969 12.933594 153 C 12.714844 153.085938 12.484375 153.125 12.242188 153.125 C 11.988281 153.125 11.753906 153.089844 11.542969 153.011719 C 11.328125 152.9375 11.144531 152.828125 10.988281 152.6875 C 10.832031 152.546875 10.710938 152.386719 10.617188 152.195312 C 10.527344 152.007812 10.472656 151.808594 10.457031 151.589844 L 9.4375 151.589844 C 9.445312 151.972656 9.519531 152.320312 9.664062 152.621094 C 9.808594 152.925781 10.003906 153.179688 10.25 153.386719 C 10.5 153.589844 10.785156 153.746094 11.109375 153.851562 C 11.433594 153.960938 11.78125 154.015625 12.148438 154.015625 C 12.644531 154.015625 13.078125 153.9375 13.449219 153.78125 C 13.820312 153.625 14.132812 153.414062 14.378906 153.152344 C 14.628906 152.886719 14.8125 152.585938 14.9375 152.246094 C 15.0625 151.90625 15.125 151.554688 15.125 151.195312 C 15.125 150.707031 15.050781 150.28125 14.90625 149.917969 C 14.761719 149.554688 14.566406 149.25 14.320312 149.003906 C 14.070312 148.761719 13.78125 148.578125 13.445312 148.457031 C 13.109375 148.339844 12.75 148.277344 12.375 148.277344 C 12.085938 148.277344 11.796875 148.328125 11.503906 148.429688 C 11.214844 148.527344 10.976562 148.683594 10.792969 148.890625 L 10.769531 148.867188 L 11.222656 146.417969 Z M 2.34375 142.460938 "/>
<path style=" stroke:none;fill-rule:nonzero;fill:rgb(40%,40%,40%);fill-opacity:1;" d="M 6.410156 33.546875 L 3.554688 33.546875 L 6.386719 29.382812 L 6.410156 29.382812 Z M 7.371094 33.546875 L 7.371094 27.929688 L 6.554688 27.929688 L 2.679688 33.460938 L 2.679688 34.445312 L 6.410156 34.445312 L 6.410156 36.4375 L 7.371094 36.4375 L 7.371094 34.445312 L 8.523438 34.445312 L 8.523438 33.546875 Z M 10.601562 32.25 C 10.601562 32.042969 10.601562 31.8125 10.605469 31.558594 C 10.609375 31.308594 10.628906 31.054688 10.664062 30.804688 C 10.699219 30.550781 10.753906 30.304688 10.820312 30.066406 C 10.890625 29.824219 10.988281 29.617188 11.121094 29.433594 C 11.253906 29.253906 11.417969 29.109375 11.621094 28.996094 C 11.820312 28.886719 12.0625 28.828125 12.351562 28.828125 C 12.640625 28.828125 12.882812 28.886719 13.082031 28.996094 C 13.28125 29.109375 13.449219 29.253906 13.582031 29.433594 C 13.714844 29.613281 13.8125 29.824219 13.882812 30.066406 C 13.949219 30.304688 14 30.550781 14.039062 30.804688 C 14.074219 31.054688 14.09375 31.308594 14.097656 31.558594 C 14.101562 31.8125 14.105469 32.042969 14.105469 32.25 C 14.105469 32.570312 14.09375 32.925781 14.074219 33.324219 C 14.054688 33.71875 13.988281 34.089844 13.882812 34.441406 C 13.773438 34.789062 13.601562 35.082031 13.359375 35.320312 C 13.121094 35.5625 12.785156 35.679688 12.351562 35.679688 C 11.917969 35.679688 11.582031 35.5625 11.34375 35.320312 C 11.105469 35.082031 10.929688 34.789062 10.820312 34.441406 C 10.714844 34.09375 10.648438 33.71875 10.628906 33.324219 C 10.609375 32.929688 10.601562 32.570312 10.601562 32.25 Z M 9.519531 32.261719 C 9.519531 32.574219 9.527344 32.898438 9.542969 33.234375 C 9.558594 33.570312 9.601562 33.898438 9.664062 34.21875 C 9.726562 34.539062 9.820312 34.839844 9.941406 35.125 C 10.058594 35.40625 10.222656 35.65625 10.429688 35.875 C 10.640625 36.089844 10.902344 36.257812 11.21875 36.382812 C 11.535156 36.507812 11.910156 36.570312 12.351562 36.570312 C 12.800781 36.570312 13.179688 36.507812 13.492188 36.382812 C 13.804688 36.257812 14.0625 36.089844 14.273438 35.875 C 14.480469 35.65625 14.644531 35.40625 14.761719 35.125 C 14.882812 34.839844 14.976562 34.539062 15.039062 34.21875 C 15.101562 33.898438 15.144531 33.570312 15.160156 33.234375 C 15.175781 32.898438 15.183594 32.574219 15.183594 32.261719 C 15.183594 31.949219 15.175781 31.625 15.160156 31.289062 C 15.144531 30.953125 15.105469 30.625 15.039062 30.304688 C 14.976562 29.984375 14.882812 29.679688 14.761719 29.394531 C 14.644531 29.105469 14.480469 28.851562 14.273438 28.636719 C 14.0625 28.421875 13.800781 28.25 13.484375 28.121094 C 13.167969 27.992188 12.792969 27.929688 12.351562 27.929688 C 11.910156 27.929688 11.535156 27.992188 11.21875 28.121094 C 10.902344 28.25 10.640625 28.421875 10.429688 28.636719 C 10.222656 28.851562 10.058594 29.105469 9.941406 29.394531 C 9.820312 29.683594 9.726562 29.984375 9.664062 30.304688 C 9.601562 30.625 9.558594 30.953125 9.542969 31.289062 C 9.527344 31.625 9.519531 31.949219 9.519531 32.261719 Z M 2.34375 25.011719 "/>
<path style="fill:none;stroke-width:1;stroke-linecap:butt;stroke-linejoin:miter;stroke:rgb(0%,0%,0%);stroke-opacity:0.0980392;stroke-miterlimit:10;" d="M 27 971.5 L 1001 971.5 "/>
<path style=" stroke:none;fill-rule:nonzero;fill:rgb(40%,40%,40%);fill-opacity:1;" d="M 133.21875 992.097656 L 133.21875 985.667969 L 132.078125 985.667969 L 132.078125 991.929688 C 132.078125 992.402344 131.980469 992.777344 131.785156 993.058594 C 131.589844 993.339844 131.230469 993.476562 130.710938 993.476562 C 130.429688 993.476562 130.199219 993.4375 130.019531 993.351562 C 129.839844 993.269531 129.699219 993.148438 129.601562 993 C 129.5 992.847656 129.429688 992.667969 129.390625 992.457031 C 129.351562 992.25 129.328125 992.023438 129.328125 991.773438 L 129.328125 991.414062 L 128.191406 991.414062 L 128.191406 991.941406 C 128.191406 992.757812 128.40625 993.375 128.835938 993.796875 C 129.269531 994.214844 129.886719 994.425781 130.6875 994.425781 C 131.167969 994.425781 131.566406 994.359375 131.890625 994.226562 C 132.214844 994.097656 132.476562 993.921875 132.671875 993.699219 C 132.867188 993.480469 133.007812 993.230469 133.089844 992.949219 C 133.175781 992.671875 133.21875 992.386719 133.21875 992.097656 Z M 140.417969 994.210938 C 140.242188 994.316406 139.996094 994.367188 139.683594 994.367188 C 139.421875 994.367188 139.210938 994.292969 139.054688 994.144531 C 138.898438 993.996094 138.820312 993.753906 138.820312 993.417969 C 138.539062 993.753906 138.214844 993.996094 137.84375 994.144531 C 137.472656 994.292969 137.066406 994.367188 136.636719 994.367188 C 136.355469 994.367188 136.089844 994.335938 135.839844 994.269531 C 135.585938 994.207031 135.367188 994.105469 135.183594 993.96875 C 135 993.832031 134.855469 993.65625 134.746094 993.4375 C 134.636719 993.214844 134.585938 992.949219 134.585938 992.636719 C 134.585938 992.285156 134.644531 992 134.765625 991.773438 C 134.886719 991.550781 135.042969 991.367188 135.238281 991.226562 C 135.433594 991.085938 135.660156 990.980469 135.910156 990.910156 C 136.164062 990.839844 136.421875 990.777344 136.683594 990.730469 C 136.964844 990.675781 137.230469 990.632812 137.480469 990.605469 C 137.734375 990.578125 137.957031 990.535156 138.148438 990.484375 C 138.339844 990.433594 138.492188 990.355469 138.605469 990.257812 C 138.714844 990.15625 138.773438 990.011719 138.773438 989.820312 C 138.773438 989.59375 138.730469 989.414062 138.644531 989.277344 C 138.5625 989.140625 138.453125 989.039062 138.324219 988.964844 C 138.191406 988.894531 138.042969 988.847656 137.878906 988.824219 C 137.714844 988.800781 137.550781 988.785156 137.390625 988.785156 C 136.960938 988.785156 136.601562 988.867188 136.3125 989.03125 C 136.023438 989.195312 135.867188 989.507812 135.84375 989.960938 L 134.824219 989.960938 C 134.839844 989.578125 134.921875 989.253906 135.0625 988.992188 C 135.207031 988.726562 135.398438 988.511719 135.640625 988.347656 C 135.878906 988.183594 136.15625 988.066406 136.460938 987.996094 C 136.769531 987.921875 137.101562 987.886719 137.453125 987.886719 C 137.734375 987.886719 138.011719 987.90625 138.285156 987.945312 C 138.5625 987.984375 138.8125 988.070312 139.035156 988.191406 C 139.261719 988.316406 139.441406 988.492188 139.578125 988.714844 C 139.714844 988.9375 139.78125 989.230469 139.78125 989.589844 L 139.78125 992.78125 C 139.78125 993.023438 139.792969 993.199219 139.824219 993.308594 C 139.851562 993.421875 139.945312 993.476562 140.105469 993.476562 C 140.191406 993.476562 140.296875 993.457031 140.417969 993.417969 Z M 138.761719 991.03125 C 138.632812 991.125 138.464844 991.195312 138.257812 991.242188 C 138.050781 991.285156 137.832031 991.320312 137.601562 991.347656 C 137.375 991.375 137.144531 991.410156 136.914062 991.445312 C 136.679688 991.480469 136.472656 991.539062 136.289062 991.617188 C 136.105469 991.699219 135.953125 991.8125 135.839844 991.960938 C 135.722656 992.109375 135.664062 992.308594 135.664062 992.566406 C 135.664062 992.734375 135.699219 992.875 135.765625 992.992188 C 135.835938 993.109375 135.921875 993.203125 136.03125 993.273438 C 136.136719 993.347656 136.265625 993.398438 136.410156 993.429688 C 136.554688 993.460938 136.703125 993.476562 136.863281 993.476562 C 137.199219 993.476562 137.488281 993.433594 137.726562 993.339844 C 137.96875 993.25 138.164062 993.132812 138.316406 992.992188 C 138.46875 992.851562 138.582031 992.699219 138.652344 992.535156 C 138.722656 992.371094 138.761719 992.21875 138.761719 992.074219 Z M 141.367188 988.03125 L 141.367188 994.234375 L 142.386719 994.234375 L 142.386719 990.730469 C 142.386719 990.449219 142.421875 990.191406 142.5 989.957031 C 142.574219 989.71875 142.691406 989.515625 142.839844 989.339844 C 142.992188 989.164062 143.183594 989.027344 143.410156 988.929688 C 143.640625 988.835938 143.910156 988.785156 144.222656 988.785156 C 144.613281 988.785156 144.921875 988.898438 145.144531 989.121094 C 145.371094 989.347656 145.480469 989.648438 145.480469 990.035156 L 145.480469 994.234375 L 146.5 994.234375 L 146.5 990.15625 C 146.5 989.820312 146.46875 989.511719 146.398438 989.238281 C 146.332031 988.960938 146.214844 988.722656 146.046875 988.523438 C 145.878906 988.324219 145.65625 988.167969 145.386719 988.054688 C 145.113281 987.941406 144.773438 987.886719 144.367188 987.886719 C 143.445312 987.886719 142.773438 988.261719 142.351562 989.015625 L 142.324219 989.015625 L 142.324219 988.03125 Z M 153.171875 994.234375 L 153.171875 988.03125 L 152.152344 988.03125 L 152.152344 991.535156 C 152.152344 991.816406 152.117188 992.074219 152.039062 992.308594 C 151.964844 992.542969 151.847656 992.75 151.699219 992.925781 C 151.546875 993.101562 151.355469 993.238281 151.128906 993.335938 C 150.898438 993.429688 150.628906 993.476562 150.316406 993.476562 C 149.925781 993.476562 149.617188 993.367188 149.394531 993.140625 C 149.167969 992.917969 149.058594 992.613281 149.058594 992.230469 L 149.058594 988.03125 L 148.039062 988.03125 L 148.039062 992.109375 C 148.039062 992.445312 148.070312 992.753906 148.140625 993.027344 C 148.207031 993.304688 148.324219 993.542969 148.492188 993.742188 C 148.660156 993.941406 148.882812 994.097656 149.152344 994.203125 C 149.425781 994.3125 149.765625 994.367188 150.171875 994.367188 C 150.628906 994.367188 151.027344 994.277344 151.363281 994.097656 C 151.699219 993.917969 151.972656 993.632812 152.191406 993.25 L 152.214844 993.25 L 152.214844 994.234375 Z M 160.207031 994.210938 C 160.03125 994.316406 159.785156 994.367188 159.472656 994.367188 C 159.210938 994.367188 159 994.292969 158.84375 994.144531 C 158.6875 993.996094 158.609375 993.753906 158.609375 993.417969 C 158.328125 993.753906 158.003906 993.996094 157.632812 994.144531 C 157.261719 994.292969 156.855469 994.367188 156.425781 994.367188 C 156.144531 994.367188 155.878906 994.335938 155.628906 994.269531 C 155.375 994.207031 155.15625 994.105469 154.972656 993.96875 C 154.789062 993.832031 154.644531 993.65625 154.535156 993.4375 C 154.425781 993.214844 154.375 992.949219 154.375 992.636719 C 154.375 992.285156 154.433594 992 154.554688 991.773438 C 154.675781 991.550781 154.832031 991.367188 155.027344 991.226562 C 155.222656 991.085938 155.449219 990.980469 155.699219 990.910156 C 155.953125 990.839844 156.210938 990.777344 156.472656 990.730469 C 156.753906 990.675781 157.019531 990.632812 157.269531 990.605469 C 157.523438 990.578125 157.746094 990.535156 157.9375 990.484375 C 158.128906 990.433594 158.28125 990.355469 158.394531 990.257812 C 158.503906 990.15625 158.5625 990.011719 158.5625 989.820312 C 158.5625 989.59375 158.519531 989.414062 158.433594 989.277344 C 158.351562 989.140625 158.242188 989.039062 158.113281 988.964844 C 157.980469 988.894531 157.832031 988.847656 157.667969 988.824219 C 157.503906 988.800781 157.339844 988.785156 157.179688 988.785156 C 156.75 988.785156 156.390625 988.867188 156.101562 989.03125 C 155.8125 989.195312 155.65625 989.507812 155.632812 989.960938 L 154.613281 989.960938 C 154.628906 989.578125 154.710938 989.253906 154.851562 988.992188 C 154.996094 988.726562 155.1875 988.511719 155.429688 988.347656 C 155.667969 988.183594 155.945312 988.066406 156.25 987.996094 C 156.558594 987.921875 156.890625 987.886719 157.242188 987.886719 C 157.523438 987.886719 157.800781 987.90625 158.074219 987.945312 C 158.351562 987.984375 158.601562 988.070312 158.824219 988.191406 C 159.050781 988.316406 159.230469 988.492188 159.367188 988.714844 C 159.503906 988.9375 159.570312 989.230469 159.570312 989.589844 L 159.570312 992.78125 C 159.570312 993.023438 159.582031 993.199219 159.613281 993.308594 C 159.640625 993.421875 159.734375 993.476562 159.894531 993.476562 C 159.980469 993.476562 160.085938 993.457031 160.207031 993.417969 Z M 158.550781 991.03125 C 158.421875 991.125 158.253906 991.195312 158.046875 991.242188 C 157.839844 991.285156 157.621094 991.320312 157.390625 991.347656 C 157.164062 991.375 156.933594 991.410156 156.703125 991.445312 C 156.46875 991.480469 156.261719 991.539062 156.078125 991.617188 C 155.894531 991.699219 155.742188 991.8125 155.628906 991.960938 C 155.511719 992.109375 155.453125 992.308594 155.453125 992.566406 C 155.453125 992.734375 155.488281 992.875 155.554688 992.992188 C 155.625 993.109375 155.710938 993.203125 155.820312 993.273438 C 155.925781 993.347656 156.054688 993.398438 156.199219 993.429688 C 156.34375 993.460938 156.492188 993.476562 156.652344 993.476562 C 156.988281 993.476562 157.277344 993.433594 157.515625 993.339844 C 157.757812 993.25 157.953125 993.132812 158.105469 992.992188 C 158.257812 992.851562 158.371094 992.699219 158.441406 992.535156 C 158.511719 992.371094 158.550781 992.21875 158.550781 992.074219 Z M 161.117188 988.03125 L 161.117188 994.234375 L 162.140625 994.234375 L 162.140625 991.472656 C 162.140625 991.074219 162.179688 990.71875 162.257812 990.414062 C 162.339844 990.105469 162.464844 989.84375 162.644531 989.625 C 162.820312 989.410156 163.050781 989.246094 163.339844 989.132812 C 163.628906 989.023438 163.976562 988.964844 164.382812 988.964844 L 164.382812 987.886719 C 163.832031 987.871094 163.375 987.980469 163.015625 988.222656 C 162.65625 988.460938 162.351562 988.835938 162.101562 989.339844 L 162.078125 989.339844 L 162.078125 988.03125 Z M 167.585938 995.0625 C 167.464844 995.367188 167.347656 995.621094 167.234375 995.832031 C 167.117188 996.039062 166.988281 996.207031 166.847656 996.339844 C 166.707031 996.472656 166.554688 996.570312 166.378906 996.628906 C 166.207031 996.6875 166.011719 996.71875 165.785156 996.71875 C 165.667969 996.71875 165.546875 996.710938 165.425781 996.695312 C 165.304688 996.679688 165.191406 996.648438 165.078125 996.609375 L 165.078125 995.675781 C 165.167969 995.714844 165.269531 995.75 165.386719 995.777344 C 165.5 995.804688 165.597656 995.820312 165.679688 995.820312 C 165.886719 995.820312 166.0625 995.769531 166.199219 995.667969 C 166.339844 995.566406 166.445312 995.425781 166.519531 995.242188 L 166.9375 994.199219 L 164.480469 988.03125 L 165.628906 988.03125 L 167.441406 993.105469 L 167.46875 993.105469 L 169.207031 988.03125 L 170.285156 988.03125 Z M 127.925781 982.808594 "/>
<path style=" stroke:none;fill-rule:nonzero;fill:rgb(40%,40%,40%);fill-opacity:1;" d="M 369.027344 985.667969 L 369.027344 994.234375 L 370.164062 994.234375 L 370.164062 990.308594 L 374.101562 990.308594 L 374.101562 989.351562 L 370.164062 989.351562 L 370.164062 986.625 L 374.652344 986.625 L 374.652344 985.667969 Z M 380.050781 990.539062 L 376.488281 990.539062 C 376.503906 990.296875 376.554688 990.074219 376.644531 989.859375 C 376.734375 989.648438 376.851562 989.460938 377.003906 989.300781 C 377.15625 989.140625 377.339844 989.015625 377.550781 988.925781 C 377.761719 988.832031 378 988.785156 378.265625 988.785156 C 378.519531 988.785156 378.753906 988.832031 378.964844 988.925781 C 379.179688 989.015625 379.363281 989.140625 379.519531 989.296875 C 379.675781 989.453125 379.796875 989.636719 379.890625 989.855469 C 379.984375 990.070312 380.035156 990.296875 380.050781 990.539062 Z M 381.035156 992.265625 L 380.027344 992.265625 C 379.941406 992.675781 379.757812 992.976562 379.484375 993.179688 C 379.207031 993.378906 378.851562 993.476562 378.421875 993.476562 C 378.085938 993.476562 377.792969 993.421875 377.542969 993.308594 C 377.296875 993.199219 377.09375 993.046875 376.933594 992.859375 C 376.773438 992.671875 376.65625 992.457031 376.585938 992.210938 C 376.511719 991.96875 376.480469 991.710938 376.488281 991.4375 L 381.132812 991.4375 C 381.148438 991.0625 381.113281 990.667969 381.03125 990.25 C 380.945312 989.835938 380.792969 989.449219 380.574219 989.097656 C 380.355469 988.746094 380.0625 988.457031 379.699219 988.226562 C 379.335938 988 378.875 987.886719 378.324219 987.886719 C 377.902344 987.886719 377.511719 987.964844 377.15625 988.125 C 376.800781 988.285156 376.492188 988.511719 376.230469 988.796875 C 375.96875 989.085938 375.769531 989.425781 375.625 989.820312 C 375.480469 990.210938 375.410156 990.640625 375.410156 991.113281 C 375.425781 991.585938 375.496094 992.023438 375.617188 992.421875 C 375.742188 992.820312 375.929688 993.167969 376.175781 993.453125 C 376.425781 993.742188 376.730469 993.964844 377.09375 994.125 C 377.457031 994.285156 377.886719 994.367188 378.382812 994.367188 C 379.089844 994.367188 379.671875 994.191406 380.136719 993.839844 C 380.601562 993.488281 380.902344 992.960938 381.035156 992.265625 Z M 382.226562 985.667969 L 382.226562 994.234375 L 383.246094 994.234375 L 383.246094 993.40625 L 383.269531 993.40625 C 383.382812 993.589844 383.519531 993.746094 383.683594 993.867188 C 383.847656 993.992188 384.023438 994.089844 384.207031 994.164062 C 384.390625 994.234375 384.574219 994.285156 384.765625 994.320312 C 384.953125 994.351562 385.121094 994.367188 385.273438 994.367188 C 385.746094 994.367188 386.160156 994.28125 386.515625 994.113281 C 386.871094 993.945312 387.167969 993.714844 387.402344 993.425781 C 387.640625 993.132812 387.816406 992.789062 387.933594 992.398438 C 388.046875 992.007812 388.105469 991.589844 388.105469 991.148438 C 388.105469 990.710938 388.046875 990.292969 387.925781 989.902344 C 387.804688 989.511719 387.628906 989.164062 387.390625 988.863281 C 387.15625 988.5625 386.859375 988.328125 386.503906 988.148438 C 386.148438 987.972656 385.730469 987.886719 385.25 987.886719 C 384.816406 987.886719 384.421875 987.964844 384.0625 988.121094 C 383.703125 988.277344 383.4375 988.527344 383.269531 988.871094 L 383.246094 988.871094 L 383.246094 985.667969 Z M 387.027344 991.078125 C 387.027344 991.382812 386.992188 991.679688 386.929688 991.964844 C 386.867188 992.253906 386.761719 992.511719 386.617188 992.734375 C 386.472656 992.957031 386.285156 993.136719 386.046875 993.273438 C 385.8125 993.410156 385.519531 993.476562 385.164062 993.476562 C 384.8125 993.476562 384.515625 993.414062 384.265625 993.28125 C 384.019531 993.148438 383.816406 992.972656 383.660156 992.757812 C 383.503906 992.542969 383.390625 992.292969 383.316406 992.007812 C 383.246094 991.722656 383.210938 991.429688 383.210938 991.125 C 383.210938 990.839844 383.242188 990.554688 383.3125 990.273438 C 383.378906 989.992188 383.488281 989.746094 383.640625 989.523438 C 383.792969 989.304688 383.988281 989.125 384.230469 988.992188 C 384.46875 988.855469 384.761719 988.785156 385.105469 988.785156 C 385.433594 988.785156 385.71875 988.851562 385.964844 988.976562 C 386.207031 989.105469 386.40625 989.277344 386.5625 989.496094 C 386.71875 989.710938 386.835938 989.957031 386.910156 990.230469 C 386.988281 990.507812 387.027344 990.789062 387.027344 991.078125 Z M 389.269531 988.03125 L 389.269531 994.234375 L 390.292969 994.234375 L 390.292969 991.472656 C 390.292969 991.074219 390.332031 990.71875 390.410156 990.414062 C 390.492188 990.105469 390.617188 989.84375 390.796875 989.625 C 390.972656 989.410156 391.203125 989.246094 391.492188 989.132812 C 391.78125 989.023438 392.128906 988.964844 392.535156 988.964844 L 392.535156 987.886719 C 391.984375 987.871094 391.527344 987.980469 391.167969 988.222656 C 390.808594 988.460938 390.503906 988.835938 390.253906 989.339844 L 390.230469 989.339844 L 390.230469 988.03125 Z M 398.4375 994.234375 L 398.4375 988.03125 L 397.417969 988.03125 L 397.417969 991.535156 C 397.417969 991.816406 397.382812 992.074219 397.304688 992.308594 C 397.230469 992.542969 397.113281 992.75 396.964844 992.925781 C 396.8125 993.101562 396.621094 993.238281 396.394531 993.335938 C 396.164062 993.429688 395.894531 993.476562 395.582031 993.476562 C 395.191406 993.476562 394.882812 993.367188 394.660156 993.140625 C 394.433594 992.917969 394.324219 992.613281 394.324219 992.230469 L 394.324219 988.03125 L 393.304688 988.03125 L 393.304688 992.109375 C 393.304688 992.445312 393.335938 992.753906 393.40625 993.027344 C 393.472656 993.304688 393.589844 993.542969 393.757812 993.742188 C 393.925781 993.941406 394.148438 994.097656 394.417969 994.203125 C 394.691406 994.3125 395.03125 994.367188 395.4375 994.367188 C 395.894531 994.367188 396.292969 994.277344 396.628906 994.097656 C 396.964844 993.917969 397.238281 993.632812 397.457031 993.25 L 397.480469 993.25 L 397.480469 994.234375 Z M 405.472656 994.210938 C 405.296875 994.316406 405.050781 994.367188 404.738281 994.367188 C 404.476562 994.367188 404.265625 994.292969 404.109375 994.144531 C 403.953125 993.996094 403.875 993.753906 403.875 993.417969 C 403.59375 993.753906 403.269531 993.996094 402.898438 994.144531 C 402.527344 994.292969 402.121094 994.367188 401.691406 994.367188 C 401.410156 994.367188 401.144531 994.335938 400.894531 994.269531 C 400.640625 994.207031 400.421875 994.105469 400.238281 993.96875 C 400.054688 993.832031 399.910156 993.65625 399.800781 993.4375 C 399.691406 993.214844 399.640625 992.949219 399.640625 992.636719 C 399.640625 992.285156 399.699219 992 399.820312 991.773438 C 399.941406 991.550781 400.097656 991.367188 400.292969 991.226562 C 400.488281 991.085938 400.714844 990.980469 400.964844 990.910156 C 401.21875 990.839844 401.476562 990.777344 401.738281 990.730469 C 402.019531 990.675781 402.285156 990.632812 402.535156 990.605469 C 402.789062 990.578125 403.011719 990.535156 403.203125 990.484375 C 403.394531 990.433594 403.546875 990.355469 403.660156 990.257812 C 403.769531 990.15625 403.828125 990.011719 403.828125 989.820312 C 403.828125 989.59375 403.785156 989.414062 403.699219 989.277344 C 403.617188 989.140625 403.507812 989.039062 403.378906 988.964844 C 403.246094 988.894531 403.097656 988.847656 402.933594 988.824219 C 402.769531 988.800781 402.605469 988.785156 402.445312 988.785156 C 402.015625 988.785156 401.65625 988.867188 401.367188 989.03125 C 401.078125 989.195312 400.921875 989.507812 400.898438 989.960938 L 399.878906 989.960938 C 399.894531 989.578125 399.976562 989.253906 400.117188 988.992188 C 400.261719 988.726562 400.453125 988.511719 400.695312 988.347656 C 400.933594 988.183594 401.210938 988.066406 401.515625 987.996094 C 401.824219 987.921875 402.15625 987.886719 402.507812 987.886719 C 402.789062 987.886719 403.066406 987.90625 403.339844 987.945312 C 403.617188 987.984375 403.867188 988.070312 404.089844 988.191406 C 404.316406 988.316406 404.496094 988.492188 404.632812 988.714844 C 404.769531 988.9375 404.835938 989.230469 404.835938 989.589844 L 404.835938 992.78125 C 404.835938 993.023438 404.847656 993.199219 404.878906 993.308594 C 404.90625 993.421875 405 993.476562 405.160156 993.476562 C 405.246094 993.476562 405.351562 993.457031 405.472656 993.417969 Z M 403.816406 991.03125 C 403.6875 991.125 403.519531 991.195312 403.3125 991.242188 C 403.105469 991.285156 402.886719 991.320312 402.65625 991.347656 C 402.429688 991.375 402.199219 991.410156 401.96875 991.445312 C 401.734375 991.480469 401.527344 991.539062 401.34375 991.617188 C 401.160156 991.699219 401.007812 991.8125 400.894531 991.960938 C 400.777344 992.109375 400.71875 992.308594 400.71875 992.566406 C 400.71875 992.734375 400.753906 992.875 400.820312 992.992188 C 400.890625 993.109375 400.976562 993.203125 401.085938 993.273438 C 401.191406 993.347656 401.320312 993.398438 401.464844 993.429688 C 401.609375 993.460938 401.757812 993.476562 401.917969 993.476562 C 402.253906 993.476562 402.542969 993.433594 402.78125 993.339844 C 403.023438 993.25 403.21875 993.132812 403.371094 992.992188 C 403.523438 992.851562 403.636719 992.699219 403.707031 992.535156 C 403.777344 992.371094 403.816406 992.21875 403.816406 992.074219 Z M 406.378906 988.03125 L 406.378906 994.234375 L 407.402344 994.234375 L 407.402344 991.472656 C 407.402344 991.074219 407.441406 990.71875 407.519531 990.414062 C 407.601562 990.105469 407.726562 989.84375 407.90625 989.625 C 408.082031 989.410156 408.3125 989.246094 408.601562 989.132812 C 408.890625 989.023438 409.238281 988.964844 409.644531 988.964844 L 409.644531 987.886719 C 409.09375 987.871094 408.636719 987.980469 408.277344 988.222656 C 407.917969 988.460938 407.613281 988.835938 407.363281 989.339844 L 407.339844 989.339844 L 407.339844 988.03125 Z M 412.851562 995.0625 C 412.730469 995.367188 412.613281 995.621094 412.5 995.832031 C 412.382812 996.039062 412.253906 996.207031 412.113281 996.339844 C 411.972656 996.472656 411.820312 996.570312 411.644531 996.628906 C 411.472656 996.6875 411.277344 996.71875 411.050781 996.71875 C 410.933594 996.71875 410.8125 996.710938 410.691406 996.695312 C 410.570312 996.679688 410.457031 996.648438 410.34375 996.609375 L 410.34375 995.675781 C 410.433594 995.714844 410.535156 995.75 410.652344 995.777344 C 410.765625 995.804688 410.863281 995.820312 410.945312 995.820312 C 411.152344 995.820312 411.328125 995.769531 411.464844 995.667969 C 411.605469 995.566406 411.710938 995.425781 411.785156 995.242188 L 412.203125 994.199219 L 409.746094 988.03125 L 410.894531 988.03125 L 412.707031 993.105469 L 412.734375 993.105469 L 414.472656 988.03125 L 415.550781 988.03125 Z M 368.089844 982.808594 "/>
<path style=" stroke:none;fill-rule:nonzero;fill:rgb(40%,40%,40%);fill-opacity:1;" d="M 619.214844 985.667969 L 619.214844 994.234375 L 620.292969 994.234375 L 620.292969 987.105469 L 620.316406 987.105469 L 622.992188 994.234375 L 623.964844 994.234375 L 626.640625 987.105469 L 626.664062 987.105469 L 626.664062 994.234375 L 627.746094 994.234375 L 627.746094 985.667969 L 626.1875 985.667969 L 623.472656 992.867188 L 620.773438 985.667969 Z M 634.972656 994.210938 C 634.796875 994.316406 634.550781 994.367188 634.238281 994.367188 C 633.976562 994.367188 633.765625 994.292969 633.609375 994.144531 C 633.453125 993.996094 633.375 993.753906 633.375 993.417969 C 633.09375 993.753906 632.769531 993.996094 632.398438 994.144531 C 632.027344 994.292969 631.621094 994.367188 631.191406 994.367188 C 630.910156 994.367188 630.644531 994.335938 630.394531 994.269531 C 630.140625 994.207031 629.921875 994.105469 629.738281 993.96875 C 629.554688 993.832031 629.410156 993.65625 629.300781 993.4375 C 629.191406 993.214844 629.140625 992.949219 629.140625 992.636719 C 629.140625 992.285156 629.199219 992 629.320312 991.773438 C 629.441406 991.550781 629.597656 991.367188 629.792969 991.226562 C 629.988281 991.085938 630.214844 990.980469 630.464844 990.910156 C 630.71875 990.839844 630.976562 990.777344 631.238281 990.730469 C 631.519531 990.675781 631.785156 990.632812 632.035156 990.605469 C 632.289062 990.578125 632.511719 990.535156 632.703125 990.484375 C 632.894531 990.433594 633.046875 990.355469 633.160156 990.257812 C 633.269531 990.15625 633.328125 990.011719 633.328125 989.820312 C 633.328125 989.59375 633.285156 989.414062 633.199219 989.277344 C 633.117188 989.140625 633.007812 989.039062 632.878906 988.964844 C 632.746094 988.894531 632.597656 988.847656 632.433594 988.824219 C 632.269531 988.800781 632.105469 988.785156 631.945312 988.785156 C 631.515625 988.785156 631.15625 988.867188 630.867188 989.03125 C 630.578125 989.195312 630.421875 989.507812 630.398438 989.960938 L 629.378906 989.960938 C 629.394531 989.578125 629.476562 989.253906 629.617188 988.992188 C 629.761719 988.726562 629.953125 988.511719 630.195312 988.347656 C 630.433594 988.183594 630.710938 988.066406 631.015625 987.996094 C 631.324219 987.921875 631.65625 987.886719 632.007812 987.886719 C 632.289062 987.886719 632.566406 987.90625 632.839844 987.945312 C 633.117188 987.984375 633.367188 988.070312 633.589844 988.191406 C 633.816406 988.316406 633.996094 988.492188 634.132812 988.714844 C 634.269531 988.9375 634.335938 989.230469 634.335938 989.589844 L 634.335938 992.78125 C 634.335938 993.023438 634.347656 993.199219 634.378906 993.308594 C 634.40625 993.421875 634.5 993.476562 634.660156 993.476562 C 634.746094 993.476562 634.851562 993.457031 634.972656 993.417969 Z M 633.316406 991.03125 C 633.1875 991.125 633.019531 991.195312 632.8125 991.242188 C 632.605469 991.285156 632.386719 991.320312 632.15625 991.347656 C 631.929688 991.375 631.699219 991.410156 631.46875 991.445312 C 631.234375 991.480469 631.027344 991.539062 630.84375 991.617188 C 630.660156 991.699219 630.507812 991.8125 630.394531 991.960938 C 630.277344 992.109375 630.21875 992.308594 630.21875 992.566406 C 630.21875 992.734375 630.253906 992.875 630.320312 992.992188 C 630.390625 993.109375 630.476562 993.203125 630.585938 993.273438 C 630.691406 993.347656 630.820312 993.398438 630.964844 993.429688 C 631.109375 993.460938 631.257812 993.476562 631.417969 993.476562 C 631.753906 993.476562 632.042969 993.433594 632.28125 993.339844 C 632.523438 993.25 632.71875 993.132812 632.871094 992.992188 C 633.023438 992.851562 633.136719 992.699219 633.207031 992.535156 C 633.277344 992.371094 633.316406 992.21875 633.316406 992.074219 Z M 635.878906 988.03125 L 635.878906 994.234375 L 636.902344 994.234375 L 636.902344 991.472656 C 636.902344 991.074219 636.941406 990.71875 637.019531 990.414062 C 637.101562 990.105469 637.226562 989.84375 637.40625 989.625 C 637.582031 989.410156 637.8125 989.246094 638.101562 989.132812 C 638.390625 989.023438 638.738281 988.964844 639.144531 988.964844 L 639.144531 987.886719 C 638.59375 987.871094 638.136719 987.980469 637.777344 988.222656 C 637.417969 988.460938 637.113281 988.835938 636.863281 989.339844 L 636.839844 989.339844 L 636.839844 988.03125 Z M 643.910156 990.023438 L 644.964844 990.023438 C 644.925781 989.65625 644.828125 989.335938 644.675781 989.070312 C 644.523438 988.800781 644.332031 988.578125 644.09375 988.402344 C 643.859375 988.226562 643.585938 988.097656 643.28125 988.011719 C 642.972656 987.929688 642.640625 987.886719 642.289062 987.886719 C 641.800781 987.886719 641.375 987.972656 641.003906 988.144531 C 640.636719 988.316406 640.332031 988.550781 640.085938 988.851562 C 639.84375 989.152344 639.660156 989.503906 639.542969 989.910156 C 639.421875 990.3125 639.363281 990.746094 639.363281 991.210938 C 639.363281 991.675781 639.421875 992.101562 639.546875 992.488281 C 639.671875 992.875 639.855469 993.210938 640.101562 993.492188 C 640.34375 993.769531 640.648438 993.988281 641.011719 994.136719 C 641.375 994.289062 641.792969 994.367188 642.265625 994.367188 C 643.058594 994.367188 643.683594 994.160156 644.144531 993.742188 C 644.605469 993.328125 644.890625 992.734375 645 991.964844 L 643.957031 991.964844 C 643.894531 992.445312 643.71875 992.820312 643.4375 993.082031 C 643.152344 993.347656 642.757812 993.476562 642.253906 993.476562 C 641.933594 993.476562 641.65625 993.414062 641.425781 993.285156 C 641.195312 993.15625 641.003906 992.988281 640.863281 992.777344 C 640.71875 992.566406 640.613281 992.324219 640.542969 992.050781 C 640.476562 991.777344 640.441406 991.5 640.441406 991.210938 C 640.441406 990.898438 640.472656 990.597656 640.539062 990.304688 C 640.601562 990.011719 640.707031 989.753906 640.855469 989.53125 C 641.003906 989.308594 641.203125 989.125 641.449219 988.992188 C 641.699219 988.855469 642.003906 988.785156 642.375 988.785156 C 642.804688 988.785156 643.148438 988.894531 643.40625 989.109375 C 643.660156 989.324219 643.828125 989.628906 643.910156 990.023438 Z M 646.144531 985.667969 L 646.144531 994.234375 L 647.164062 994.234375 L 647.164062 990.730469 C 647.164062 990.449219 647.199219 990.191406 647.277344 989.957031 C 647.351562 989.71875 647.46875 989.515625 647.617188 989.339844 C 647.769531 989.164062 647.960938 989.027344 648.1875 988.929688 C 648.417969 988.835938 648.6875 988.785156 649 988.785156 C 649.390625 988.785156 649.699219 988.898438 649.921875 989.121094 C 650.148438 989.347656 650.257812 989.648438 650.257812 990.035156 L 650.257812 994.234375 L 651.277344 994.234375 L 651.277344 990.15625 C 651.277344 989.820312 651.246094 989.511719 651.175781 989.238281 C 651.109375 988.960938 650.992188 988.722656 650.824219 988.523438 C 650.65625 988.324219 650.433594 988.167969 650.164062 988.054688 C 649.890625 987.941406 649.550781 987.886719 649.144531 987.886719 C 648.960938 987.886719 648.769531 987.90625 648.574219 987.945312 C 648.378906 987.984375 648.1875 988.046875 648.007812 988.132812 C 647.828125 988.214844 647.667969 988.324219 647.523438 988.457031 C 647.378906 988.589844 647.265625 988.75 647.1875 988.941406 L 647.164062 988.941406 L 647.164062 985.667969 Z M 618.253906 982.808594 "/>
<path style=" stroke:none;fill-rule:nonzero;fill:rgb(40%,40%,40%);fill-opacity:1;" d="M 868.828125 990.695312 L 870.28125 986.699219 L 870.304688 986.699219 L 871.734375 990.695312 Z M 869.683594 985.667969 L 866.347656 994.234375 L 867.511719 994.234375 L 868.46875 991.65625 L 872.09375 991.65625 L 873.03125 994.234375 L 874.289062 994.234375 L 870.941406 985.667969 Z M 875 988.03125 L 875 996.597656 L 876.019531 996.597656 L 876.019531 993.40625 L 876.042969 993.40625 C 876.15625 993.589844 876.292969 993.746094 876.457031 993.867188 C 876.621094 993.992188 876.796875 994.089844 876.980469 994.164062 C 877.164062 994.234375 877.347656 994.285156 877.539062 994.320312 C 877.726562 994.351562 877.894531 994.367188 878.046875 994.367188 C 878.519531 994.367188 878.933594 994.28125 879.289062 994.113281 C 879.644531 993.945312 879.941406 993.714844 880.175781 993.425781 C 880.414062 993.132812 880.589844 992.789062 880.707031 992.398438 C 880.820312 992.007812 880.878906 991.589844 880.878906 991.148438 C 880.878906 990.710938 880.820312 990.292969 880.699219 989.902344 C 880.578125 989.511719 880.402344 989.164062 880.164062 988.863281 C 879.929688 988.5625 879.632812 988.328125 879.277344 988.148438 C 878.921875 987.972656 878.503906 987.886719 878.023438 987.886719 C 877.589844 987.886719 877.195312 987.964844 876.835938 988.121094 C 876.476562 988.277344 876.210938 988.527344 876.042969 988.871094 L 876.019531 988.871094 L 876.019531 988.03125 Z M 879.800781 991.078125 C 879.800781 991.382812 879.765625 991.679688 879.703125 991.964844 C 879.640625 992.253906 879.535156 992.511719 879.390625 992.734375 C 879.246094 992.957031 879.058594 993.136719 878.820312 993.273438 C 878.585938 993.410156 878.292969 993.476562 877.9375 993.476562 C 877.585938 993.476562 877.289062 993.414062 877.039062 993.28125 C 876.792969 993.148438 876.589844 992.972656 876.433594 992.757812 C 876.277344 992.542969 876.164062 992.292969 876.089844 992.007812 C 876.019531 991.722656 875.984375 991.429688 875.984375 991.125 C 875.984375 990.839844 876.015625 990.554688 876.085938 990.273438 C 876.152344 989.992188 876.261719 989.746094 876.414062 989.523438 C 876.566406 989.304688 876.761719 989.125 877.003906 988.992188 C 877.242188 988.855469 877.535156 988.785156 877.878906 988.785156 C 878.207031 988.785156 878.492188 988.851562 878.738281 988.976562 C 878.980469 989.105469 879.179688 989.277344 879.335938 989.496094 C 879.492188 989.710938 879.609375 989.957031 879.683594 990.230469 C 879.761719 990.507812 879.800781 990.789062 879.800781 991.078125 Z M 882.042969 988.03125 L 882.042969 994.234375 L 883.066406 994.234375 L 883.066406 991.472656 C 883.066406 991.074219 883.105469 990.71875 883.183594 990.414062 C 883.265625 990.105469 883.390625 989.84375 883.570312 989.625 C 883.746094 989.410156 883.976562 989.246094 884.265625 989.132812 C 884.554688 989.023438 884.902344 988.964844 885.308594 988.964844 L 885.308594 987.886719 C 884.757812 987.871094 884.300781 987.980469 883.941406 988.222656 C 883.582031 988.460938 883.277344 988.835938 883.027344 989.339844 L 883.003906 989.339844 L 883.003906 988.03125 Z M 887.152344 986.914062 L 887.152344 985.667969 L 886.132812 985.667969 L 886.132812 986.914062 Z M 886.132812 988.03125 L 886.132812 994.234375 L 887.152344 994.234375 L 887.152344 988.03125 Z M 888.796875 985.667969 L 888.796875 994.234375 L 889.816406 994.234375 L 889.816406 985.667969 Z M 866.417969 982.808594 "/>
<g clip-path="url(#clip1)" clip-rule="nonzero">
<path style=" stroke:none;fill-rule:evenodd;fill:rgb(29.411765%,75.294118%,75.294118%);fill-opacity:1;" d="M 61.386719 736.699219 L 236.464844 736.699219 L 236.464844 971.097656 L 61.386719 971.097656 Z M 62.386719 737.699219 L 235.464844 737.699219 L 235.464844 971.097656 L 62.386719 971.097656 Z M 62.386719 737.699219 "/>
</g>
<g clip-path="url(#clip2)" clip-rule="nonzero">
<path style=" stroke:none;fill-rule:nonzero;fill:rgb(29.411765%,75.294118%,75.294118%);fill-opacity:0.2;" d="M 62.386719 737.699219 L 235.464844 737.699219 L 235.464844 971.097656 L 62.386719 971.097656 Z M 62.386719 737.699219 "/>
</g>
<g clip-path="url(#clip3)" clip-rule="nonzero">
<path style=" stroke:none;fill-rule:evenodd;fill:rgb(29.411765%,75.294118%,75.294118%);fill-opacity:1;" d="M 304.550781 501.800781 L 479.628906 501.800781 L 479.628906 971.101562 L 304.550781 971.101562 Z M 305.550781 502.800781 L 478.628906 502.800781 L 478.628906 971.101562 L 305.550781 971.101562 Z M 305.550781 502.800781 "/>
</g>
<g clip-path="url(#clip4)" clip-rule="nonzero">
<path style=" stroke:none;fill-rule:nonzero;fill:rgb(29.411765%,75.294118%,75.294118%);fill-opacity:0.2;" d="M 305.550781 502.800781 L 478.628906 502.800781 L 478.628906 971.101562 L 305.550781 971.101562 Z M 305.550781 502.800781 "/>
</g>
<g clip-path="url(#clip5)" clip-rule="nonzero">
<path style=" stroke:none;fill-rule:evenodd;fill:rgb(29.411765%,75.294118%,75.294118%);fill-opacity:1;" d="M 547.714844 266.898438 L 722.792969 266.898438 L 722.792969 971.097656 L 547.714844 971.097656 Z M 548.714844 267.898438 L 721.792969 267.898438 L 721.792969 971.097656 L 548.714844 971.097656 Z M 548.714844 267.898438 "/>
</g>
<g clip-path="url(#clip6)" clip-rule="nonzero">
<path style=" stroke:none;fill-rule:nonzero;fill:rgb(29.411765%,75.294118%,75.294118%);fill-opacity:0.2;" d="M 548.714844 267.898438 L 721.792969 267.898438 L 721.792969 971.097656 L 548.714844 971.097656 Z M 548.714844 267.898438 "/>
</g>
<g clip-path="url(#clip7)" clip-rule="nonzero">
<path style=" stroke:none;fill-rule:evenodd;fill:rgb(29.411765%,75.294118%,75.294118%);fill-opacity:1;" d="M 790.878906 32 L 965.957031 32 L 965.957031 971.101562 L 790.878906 971.101562 Z M 791.878906 33 L 964.957031 33 L 964.957031 971.101562 L 791.878906 971.101562 Z M 791.878906 33 "/>
</g>
<g clip-path="url(#clip8)" clip-rule="nonzero">
<path style=" stroke:none;fill-rule:nonzero;fill:rgb(29.411765%,75.294118%,75.294118%);fill-opacity:0.2;" d="M 791.878906 33 L 964.957031 33 L 964.957031 971.101562 L 791.878906 971.101562 Z M 791.878906 33 "/>
</g>
</g>
</svg>

